<svg width="187" height="147" viewBox="0 0 187 147" fill="none" xmlns="http://www.w3.org/2000/svg">
<path fill-rule="evenodd" clip-rule="evenodd" d="M103.842 0.761146C103.126 0.988299 102.113 1.21495 100.873 1.46757C100.404 1.56293 99.9063 1.66157 99.3847 1.76485C98.2108 1.99727 96.9185 2.25315 95.5829 2.54784C91.7309 3.39779 87.411 4.59186 84.2351 6.57595C77.4622 10.8072 75.5 18.2064 75.5 22C75.5 31.665 83.335 39.5 93 39.5C102.665 39.5 110.5 31.665 110.5 22C110.5 20.4588 112.345 19.2798 113.54 20.2531C125.375 29.8919 133.646 43.2272 136.451 58.19C136.779 59.9399 135.412 61.5199 133.632 61.5722C79.8625 63.1534 43.7406 67.7547 23 73.5C11.865 76.5845 6.04934 80.2178 1.01502 84.1904C0.798245 84.3614 0.767634 84.6762 0.942452 84.89C1.11727 85.1037 1.43137 85.1355 1.64825 84.9645C6.5285 81.1183 14.2653 77.6248 25.3422 74.5565C46.4628 68.7059 81.5554 63.9282 137.554 62.4637C137.849 62.456 143.5 61.9031 143.464 61.6102C141.16 42.803 124.983 26.491 109.286 15.8432C108.886 15.5716 108.371 15.9704 108.535 16.4259C109.159 18.1664 109.5 20.0429 109.5 22C109.5 31.1127 102.113 38.5 93 38.5C83.8873 38.5 76.5 31.1127 76.5 22C76.5 18.4418 78.3667 11.4212 84.7649 7.42405C87.7829 5.53864 91.9536 4.3727 95.7984 3.52435C97.1232 3.23202 98.3965 2.97993 99.5657 2.74845L99.5659 2.74841C100.091 2.64453 100.594 2.54481 101.072 2.44745C102.325 2.19227 103.42 1.95013 104.218 1.69033C104.48 1.60479 104.604 1.31323 104.5 1.05728C104.396 0.801337 104.105 0.677572 103.842 0.761146ZM93 15.5C89.4102 15.5 86.5 18.4102 86.5 22C86.5 25.5899 89.4102 28.5 93 28.5C96.5899 28.5 99.5 25.5899 99.5 22C99.5 18.4102 96.5899 15.5 93 15.5ZM177.5 21.5C175.843 21.5 174.5 22.8432 174.5 24.5V58.001C174.5 59.6575 173.157 61.0002 171.501 61.0037C163.704 61.0202 156.234 61.0919 149.08 61.2147C148.804 61.2195 148.584 61.4472 148.589 61.7233C148.594 61.9994 148.822 62.2193 149.098 62.2146C157.309 62.0736 165.937 62 175 62C175.276 62 175.5 61.7762 175.5 61.5V25.5C175.5 23.8432 176.843 22.5 178.5 22.5H182.5C184.157 22.5 185.5 23.8432 185.5 25.5V117.5C185.5 119.157 184.157 120.5 182.5 120.5H178.5C176.843 120.5 175.5 119.157 175.5 117.5V72.5C175.5 72.2239 175.276 72 175 72C165.856 72 157.17 72.0754 148.921 72.2194C148.657 72.224 148.442 72.4335 148.43 72.6975C146.674 113.008 111.851 145.248 69.0025 145.499C68.7264 145.5 68.5 145.724 68.5 146C68.5 146.276 68.7264 146.5 69.0025 146.499C111.057 146.256 153.782 112.637 157.468 73.4434C158.657 73.3996 159.84 73.3493 161.029 73.2987C164.379 73.1562 167.778 73.0117 171.499 73.0037C173.156 73.0002 174.5 74.3438 174.5 76.001V118.5C174.5 120.157 175.843 121.5 177.5 121.5H183.5C185.157 121.5 186.5 120.157 186.5 118.5V24.5C186.5 22.8432 185.157 21.5 183.5 21.5H177.5ZM157.468 73.4434C157.479 73.3278 157.49 73.2122 157.5 73.0965C157.138 73.3602 154.109 73.5001 153.069 73.5482C152.673 73.5665 152.565 73.5715 153 73.5649C154.514 73.5422 155.996 73.4977 157.468 73.4434ZM138.403 72.9864L138.433 72.4446L137.891 72.4587C82.2387 73.9115 48.0464 78.6438 28.0117 84.1936C15.8335 87.567 9.52854 91.076 6.70427 93.8012C5.35099 95.107 5.07297 95.965 5.01754 96.2827L5.01702 96.2857C5.00471 96.3561 4.98138 96.494 5.02503 96.685L5.02674 96.6923C5.04302 96.7613 5.01893 96.8352 4.95967 96.8741C4.89418 96.9172 4.87106 97.0023 4.9058 97.0725L5.04114 97.3461C16.1074 119.719 40.108 135.5 68.5 135.5C106.399 135.5 136.486 107.374 138.403 72.9864Z" fill="#0085FF"/>
</svg>
