<svg width="193" height="197" viewBox="0 0 193 197" fill="none" xmlns="http://www.w3.org/2000/svg">
<g opacity="0.2">
<path fill-rule="evenodd" clip-rule="evenodd" d="M103.012 0.0259169C102.297 0.25307 101.284 0.479725 100.043 0.732339C99.5751 0.8277 99.0769 0.926344 98.5553 1.02962C97.3815 1.26204 96.0891 1.51792 94.7536 1.81261C90.9015 2.66257 86.5816 3.85663 83.4057 5.84072C76.6329 10.0719 74.6707 17.4712 74.6707 21.2648C74.6707 30.9298 82.5057 38.7648 92.1707 38.7648C101.836 38.7648 109.671 30.9298 109.671 21.2648C109.671 19.7235 111.515 18.5446 112.71 19.5179C124.546 29.1567 132.817 42.492 135.621 57.4548C135.949 59.2047 134.583 60.7847 132.803 60.837C79.0331 62.4182 42.9113 67.0195 22.1707 72.7648C11.0357 75.8492 5.22 79.4825 0.185677 83.4551C-0.0311007 83.6262 -0.0617115 83.941 0.113106 84.1547C0.287924 84.3685 0.602027 84.4002 0.818909 84.2293C5.69915 80.3831 13.436 76.8896 24.5128 73.8212C45.6334 67.9707 80.7261 63.193 136.725 61.7285C137.019 61.7208 142.671 61.1679 142.635 60.875C140.33 42.0678 124.154 25.7558 108.457 15.108C108.056 14.8364 107.542 15.2352 107.706 15.6907C108.33 17.4312 108.671 19.3077 108.671 21.2648C108.671 30.3775 101.283 37.7648 92.1707 37.7648C83.058 37.7648 75.6707 30.3775 75.6707 21.2648C75.6707 17.7066 77.5374 10.686 83.9356 6.68882C86.9535 4.80341 91.1243 3.63747 94.9691 2.78912C96.2939 2.49679 97.5672 2.2447 98.7363 2.01322C99.261 1.90934 99.7649 1.80958 100.243 1.71222C101.496 1.45704 102.591 1.2149 103.388 0.955102C103.651 0.869563 103.774 0.577997 103.671 0.322052C103.567 0.0661071 103.275 -0.057657 103.012 0.0259169ZM92.1707 14.7648C88.5808 14.7648 85.6707 17.6749 85.6707 21.2648C85.6707 24.8546 88.5808 27.7648 92.1707 27.7648C95.7605 27.7648 98.6707 24.8546 98.6707 21.2648C98.6707 17.6749 95.7605 14.7648 92.1707 14.7648ZM156.639 72.7082C156.65 72.5926 156.66 72.477 156.671 72.3613C156.308 72.6249 153.279 72.7649 152.239 72.813C151.844 72.8312 151.736 72.8362 152.171 72.8297C153.685 72.8069 155.167 72.7625 156.639 72.7082ZM137.574 72.2512L137.604 71.7093L137.061 71.7235C81.4094 73.1763 47.2171 77.9086 27.1824 83.4583C15.0041 86.8318 8.69919 90.3408 5.87492 93.066C4.52164 94.3718 4.24362 95.2298 4.18819 95.5475L4.18767 95.5504C4.17536 95.6209 4.15204 95.7588 4.19569 95.9497L4.1974 95.9571C4.21367 96.0261 4.18958 96.1 4.13032 96.1389C4.06483 96.1819 4.04172 96.267 4.07646 96.3373L4.2118 96.6109C15.278 118.984 39.2787 134.765 67.6707 134.765C105.57 134.765 135.657 106.639 137.574 72.2512Z" fill="#0085FF"/>
<path d="M156.639 72.7082C156.65 72.5926 156.66 72.477 156.671 72.3613C156.308 72.6249 153.279 72.7649 152.239 72.813C151.844 72.8312 151.736 72.8362 152.171 72.8297C153.685 72.8069 155.167 72.7625 156.639 72.7082Z" fill="#0085FF"/>
</g>
</svg>
