<svg width="26" height="26" viewBox="0 0 26 26" fill="none" xmlns="http://www.w3.org/2000/svg">
<path d="M24.57 17.8822C22.7933 17.8822 21.0744 17.5933 19.4711 17.0733C18.9656 16.9 18.4022 17.03 18.0122 17.42L15.7444 20.2656C11.6567 18.3156 7.82889 14.6322 5.79222 10.4L8.60889 8.00222C8.99889 7.59778 9.11444 7.03444 8.95555 6.52889C8.42111 4.92556 8.14667 3.20667 8.14667 1.43C8.14667 0.65 7.49667 0 6.71667 0H1.71889C0.938889 0 0 0.346667 0 1.43C0 14.8489 11.1656 26 24.57 26C25.5956 26 26 25.09 26 24.2956V19.3122C26 18.5322 25.35 17.8822 24.57 17.8822Z" fill="white"/>
</svg>
