<svg width="204" height="405" viewBox="0 0 204 405" fill="none" xmlns="http://www.w3.org/2000/svg">
<path d="M76.1118 50.9766C76.1118 50.9766 96.9837 51.1752 102.93 54.1153C108.876 57.0554 90.2295 76.934 84.1904 73.5039C78.1514 70.0738 70.2847 59.267 76.1118 50.9766Z" fill="#407BFF"/>
<path opacity="0.2" d="M76.1118 50.9766C76.1118 50.9766 96.9837 51.1752 102.93 54.1153C108.876 57.0554 90.2295 76.934 84.1904 73.5039C78.1514 70.0738 70.2847 59.267 76.1118 50.9766Z" fill="black"/>
<path d="M72.6477 386.616L60.0759 391.299C59.8708 391.376 59.698 391.521 59.5858 391.709C59.4736 391.897 59.4286 392.118 59.4582 392.335L60.8205 402.328C60.8541 402.544 60.9309 402.751 61.0463 402.937C61.1617 403.123 61.3133 403.283 61.4921 403.409C61.6709 403.535 61.8732 403.624 62.0871 403.67C62.3009 403.716 62.5217 403.719 62.7366 403.678L63.0716 403.553C67.1145 401.962 69.9882 400.609 75.1013 398.704C78.2412 397.535 87.8725 394.328 92.2161 392.71C96.5598 391.092 95.5808 386.567 93.5961 386.854C84.9689 388.089 78.0654 387.919 74.6536 386.576C74.0055 386.326 73.2852 386.34 72.6477 386.616Z" fill="#407BFF"/>
<path d="M131.391 358.725L118.202 361.249C117.986 361.294 117.792 361.411 117.651 361.58C117.509 361.749 117.429 361.96 117.423 362.181L117.126 372.256C117.121 372.688 117.286 373.104 117.585 373.415C117.884 373.726 118.294 373.907 118.725 373.918L119.09 373.849C123.331 372.969 126.39 372.114 131.749 371.088C135.053 370.456 145.068 368.889 149.621 368.018C154.173 367.147 153.962 362.521 151.97 362.471C143.258 362.251 136.479 360.933 133.339 359.039C132.755 358.687 132.057 358.575 131.391 358.725Z" fill="#407BFF"/>
<path d="M68.8941 142.437H127.537C133.112 172.897 148.226 263.224 135.698 359.227L116.814 363.618C116.814 363.618 120.014 246.73 102.493 199.61C100.467 224.772 79.9789 392.436 79.9789 392.436H59.7825C59.7825 392.436 62.802 329.383 65.8215 269.827C67.7286 232.295 68.8146 150.118 68.8941 142.437Z" fill="#263238"/>
<path opacity="0.2" d="M102.506 199.596C105.391 207.853 107.584 216.336 109.062 224.957C110.691 202.523 104.135 178.724 104.135 178.724L102.506 199.596Z" fill="black"/>
<path d="M58.3522 58.2341C77.3687 56.2707 96.5415 56.3639 115.538 58.5122C115.538 58.5122 125.298 103.209 126.279 145.92H67.2386C67.2386 145.92 67.1856 85.6218 58.3522 58.2341Z" fill="#407BFF"/>
<path opacity="0.6" d="M58.3522 58.2341C77.3687 56.2707 96.5415 56.3639 115.538 58.5122C115.538 58.5122 125.298 103.209 126.279 145.92H67.2386C67.2386 145.92 67.1856 85.6218 58.3522 58.2341Z" fill="white"/>
<path d="M79.1182 59.4127C84.1905 64.0215 96.6129 62.3263 96.6129 62.3263C96.6129 62.3263 104.374 60.1941 102.745 57.7705C98.1757 57.0157 95.964 54.8834 95.0502 52.1553C94.5498 50.4641 94.3922 48.6901 94.5867 46.9373C94.6625 45.9599 94.7907 44.9873 94.9707 44.0237L79.6082 32.6475C81.6212 40.1566 84.0845 53.9696 79.1182 59.4127Z" fill="#E4897B"/>
<path opacity="0.2" d="M83.1574 39.8784C83.7666 49.1489 91.3419 51.6387 95.0766 52.1552C94.5762 50.4641 94.4186 48.6901 94.6131 46.9372L83.1574 39.8784Z" fill="black"/>
<path d="M111.088 11.3253C111.088 11.3253 113.379 26.1184 105.539 31.8264C97.6989 37.5344 97.5929 10.001 97.5929 10.001L111.088 11.3253Z" fill="#263238"/>
<path d="M82.7866 43.6532C84.4444 46.0809 86.8516 47.8988 89.6402 48.8292C92.4288 49.7595 95.4453 49.751 98.2286 48.805C101.854 47.65 104.9 45.1531 106.744 41.8256C107.002 41.3654 107.236 40.8924 107.446 40.4085C111.287 31.3499 112.465 15.5238 102.89 9.63045C99.6184 7.59349 95.6725 6.93619 91.9169 7.80249C88.1612 8.66879 84.902 10.9881 82.8528 14.2525C81.6293 16.1859 80.8847 18.3834 80.6809 20.6624C79.5419 31.191 78.3765 37.4022 82.7866 43.6532Z" fill="#E4897B"/>
<path d="M96.1096 26.2641C95.911 27.0984 96.295 27.8931 96.8645 27.9858C97.434 28.0785 97.9902 27.456 98.1889 26.5952C98.3875 25.7343 97.9902 24.9795 97.434 24.8868C96.8778 24.7941 96.2685 25.4033 96.1096 26.2641Z" fill="#263238"/>
<path d="M105.791 27.8933C105.592 28.7277 105.989 29.509 106.546 29.6017C107.102 29.6944 107.671 29.072 107.87 28.2774C108.069 27.4828 107.671 26.6484 107.115 26.5557C106.559 26.463 105.91 27.0722 105.791 27.8933Z" fill="#263238"/>
<path d="M102.625 27.7871C103.212 30.5539 104.175 33.2274 105.486 35.7333C104.828 36.0531 104.108 36.2259 103.376 36.2396C102.644 36.2533 101.918 36.1077 101.248 35.8127L102.625 27.7871Z" fill="#DE5753"/>
<path d="M110.042 24.3572C109.953 24.3891 109.858 24.3973 109.765 24.381C109.672 24.3648 109.585 24.3246 109.512 24.2645C109.045 23.8313 108.484 23.5134 107.872 23.3364C107.26 23.1593 106.615 23.1279 105.989 23.2447C105.86 23.2741 105.724 23.2537 105.608 23.1874C105.493 23.1212 105.407 23.014 105.367 22.8871C105.349 22.8228 105.344 22.7555 105.352 22.6892C105.361 22.6229 105.382 22.5589 105.415 22.501C105.448 22.443 105.493 22.3923 105.546 22.3517C105.599 22.3112 105.66 22.2816 105.724 22.2647C106.513 22.1 107.329 22.1258 108.105 22.34C108.881 22.5542 109.595 22.9507 110.188 23.4964C110.289 23.5837 110.353 23.7071 110.365 23.8405C110.378 23.974 110.338 24.107 110.254 24.2115C110.194 24.2737 110.122 24.3232 110.042 24.3572Z" fill="#263238"/>
<path d="M94.8515 22.0927C94.7517 22.0689 94.6602 22.0186 94.5866 21.947C94.5166 21.8324 94.4941 21.6949 94.5237 21.5639C94.5534 21.4328 94.633 21.3185 94.7456 21.2451C95.4283 20.8087 96.2069 20.5445 97.0142 20.4753C97.8216 20.4061 98.6337 20.5339 99.3808 20.8478C99.4978 20.91 99.5865 21.0148 99.6284 21.1406C99.6703 21.2663 99.6622 21.4033 99.606 21.5232C99.5437 21.6403 99.4397 21.7297 99.3146 21.7739C99.1896 21.818 99.0525 21.8136 98.9306 21.7616C98.3355 21.5323 97.6952 21.4453 97.0606 21.5073C96.4259 21.5694 95.8146 21.779 95.2753 22.1192C95.1361 22.1668 94.9837 22.1572 94.8515 22.0927Z" fill="#263238"/>
<path d="M90.5739 8.87506V13.5898C89.7407 13.8726 89.0448 14.4592 88.6251 15.2324C88.2053 16.0057 88.0925 16.9088 88.3092 17.7615C89.3422 21.8538 86.4021 27.6545 83.1045 29.6807C83.1045 29.6807 83.2237 27.9723 81.7801 28.2107C80.3366 28.4491 79.6479 37.3223 81.939 41.8648C81.939 41.8648 78.1646 37.5474 76.88 27.9988C75.7013 19.1521 76.2708 11.9741 78.4295 8.86182L90.5739 8.87506Z" fill="#263238"/>
<path d="M74.655 28.5423C75.0333 29.8135 75.6585 30.9976 76.4947 32.027C77.331 33.0564 78.3619 33.9109 79.5287 34.5416C82.6674 36.2103 84.9983 33.5881 84.8261 30.2374C84.601 27.2576 82.7336 22.7018 79.2638 22.4502C75.794 22.1986 73.7545 25.3373 74.655 28.5423Z" fill="#E4897B"/>
<path d="M100.149 38.4615C99.4071 39.5867 98.7477 40.764 98.1756 41.9843C97.9427 41.9304 97.7128 41.8641 97.4869 41.7857C94.388 40.8851 93.2623 39.4415 92.9312 38.1172C92.7691 37.4694 92.7691 36.7917 92.9312 36.1439C93.0114 35.7775 93.1453 35.425 93.3285 35.0977C94.9943 36.5023 96.9401 37.5361 99.0364 38.1304C99.7251 38.3556 100.149 38.4615 100.149 38.4615Z" fill="#263238"/>
<path d="M99.0894 38.1304L98.4802 39.1634C95.5666 38.2894 93.6331 37.2961 92.9841 36.1439C93.0644 35.7775 93.1983 35.425 93.3814 35.0977C95.0473 36.5023 96.9931 37.5361 99.0894 38.1304Z" fill="white"/>
<path d="M97.487 41.7857C94.388 40.8851 93.2623 39.4415 92.9312 38.1172C94.1034 38.4824 95.2018 39.0518 96.1759 39.7991C96.8096 40.3082 97.268 41.0029 97.487 41.7857Z" fill="#DE5753"/>
<path d="M90.5871 13.5901C90.5871 13.5901 114.121 21.629 111.406 5.76318C111.406 5.76318 98.7186 -1.73269 87.5675 0.373043C76.4164 2.47877 77.37 13.9345 77.37 13.9345L90.5871 13.5901Z" fill="#263238"/>
<path d="M76.0456 54.897C76.0456 54.897 77.6216 108.891 65.8083 159.839L58.3522 153.429C58.3522 153.429 61.9279 89.1979 58.3522 58.2344L76.0456 54.897Z" fill="#407BFF"/>
<path d="M102.93 55.771C102.93 55.771 118.319 81.3708 125.153 158.117L131.192 155.138C131.192 155.138 124.305 81.596 115.538 58.4594L102.93 55.771Z" fill="#407BFF"/>
<path opacity="0.2" d="M65.8083 159.839L58.3522 153.429C58.3522 153.429 59.8884 125.83 59.9414 98.0976C59.9414 93.065 59.9414 88.0192 59.7957 83.1455C59.5971 73.875 59.16 65.2137 58.3522 58.2344L76.0456 54.897C76.0456 54.897 77.6216 108.891 65.8083 159.839Z" fill="white"/>
<path opacity="0.2" d="M102.93 55.771C102.93 55.771 118.319 81.3708 125.153 158.117L131.192 155.138C131.192 155.138 124.305 81.596 115.538 58.4594L102.93 55.771Z" fill="white"/>
<path d="M76.1118 50.9766C76.1118 50.9766 77.4362 55.4661 80.2438 57.36L76.0589 68.2727V62.2468L74.8669 64.8956L69.649 56.1548L76.1118 50.9766Z" fill="#407BFF"/>
<path d="M98.8113 52.8574C98.8113 52.8574 103.566 54.2612 107.473 66.101V61.2538L111.631 63.3066C111.631 63.3066 105.645 55.281 104.175 54.3142C102.474 53.5506 100.665 53.0589 98.8113 52.8574Z" fill="#407BFF"/>
<path d="M108.135 90.6282C108.144 90.7553 108.128 90.8828 108.087 91.0036C108.047 91.1243 107.983 91.2359 107.899 91.3319C107.816 91.4278 107.714 91.5064 107.6 91.5629C107.485 91.6194 107.361 91.6528 107.234 91.6612L81.6079 93.1975C81.4833 93.2046 81.3586 93.1869 81.2409 93.1453C81.1232 93.1037 81.015 93.0391 80.9226 92.9553C80.8301 92.8715 80.7553 92.7701 80.7024 92.6571C80.6496 92.544 80.6197 92.4216 80.6147 92.2969L80.0849 83.1986L79.5552 74.14C79.548 74.0125 79.5665 73.885 79.6096 73.7649C79.6527 73.6448 79.7194 73.5345 79.8058 73.4407C79.8923 73.3468 79.9967 73.2713 80.1129 73.2185C80.2291 73.1657 80.3547 73.1368 80.4822 73.1334L105.738 72.4448C105.981 72.4373 106.217 72.5242 106.397 72.6872C106.577 72.8501 106.688 73.0765 106.705 73.3189L107.433 82.1126L108.135 90.6282Z" fill="#407BFF"/>
<path opacity="0.4" d="M108.135 90.6282C108.144 90.7553 108.128 90.8828 108.087 91.0036C108.047 91.1243 107.983 91.2359 107.899 91.3319C107.816 91.4278 107.714 91.5064 107.6 91.5629C107.485 91.6194 107.361 91.6528 107.234 91.6612L81.6079 93.1975C81.4833 93.2046 81.3586 93.1869 81.2409 93.1453C81.1232 93.1037 81.015 93.0391 80.9226 92.9553C80.8301 92.8715 80.7553 92.7701 80.7024 92.6571C80.6496 92.544 80.6197 92.4216 80.6147 92.2969L80.0849 83.1986L79.5552 74.14C79.548 74.0125 79.5665 73.885 79.6096 73.7649C79.6527 73.6448 79.7194 73.5345 79.8058 73.4407C79.8923 73.3468 79.9967 73.2713 80.1129 73.2185C80.2291 73.1657 80.3547 73.1368 80.4822 73.1334L105.738 72.4448C105.981 72.4373 106.217 72.5242 106.397 72.6872C106.577 72.8501 106.688 73.0765 106.705 73.3189L107.433 82.1126L108.135 90.6282Z" fill="white"/>
<path opacity="0.2" d="M108.135 90.628C108.144 90.755 108.128 90.8826 108.087 91.0033C108.047 91.1241 107.983 91.2356 107.899 91.3316C107.816 91.4276 107.714 91.5061 107.6 91.5626C107.485 91.6192 107.361 91.6526 107.234 91.661L81.6079 93.1973C81.4833 93.2044 81.3586 93.1866 81.2409 93.1451C81.1232 93.1035 81.015 93.0389 80.9226 92.9551C80.8301 92.8713 80.7553 92.7699 80.7024 92.6568C80.6496 92.5438 80.6197 92.4214 80.6146 92.2967L80.0849 83.1983C81.7403 79.755 83.952 75.9144 85.4883 75.9673C88.2827 76.06 86.9583 84.8273 88.3886 86.0192C89.8189 87.2111 94.0834 79.0134 94.5601 79.808C95.0369 80.6026 94.9177 83.397 95.1296 84.0857C95.2885 84.5757 103.076 83.0262 107.433 82.1124L108.135 90.628Z" fill="black"/>
<path opacity="0.3" d="M59.9414 98.0975C59.9414 93.0649 59.9414 88.0191 59.7957 83.1455C60.7757 81 61.4512 79.5962 61.4512 79.5962C62.4889 82.6175 62.8905 85.8207 62.6307 89.0047C62.3709 92.1886 61.4552 95.2844 59.9414 98.0975Z" fill="black"/>
<path d="M49.0817 74.6035C49.0817 74.6035 34.8713 108.322 32.0901 108.004C29.309 107.686 26.0511 99.4617 26.0511 99.4617L19.2968 102.706C19.2968 102.706 24.3691 115.619 32.0901 119.115C39.8111 122.612 55.8226 89.2509 55.8226 89.2509L49.0817 74.6035Z" fill="#407BFF"/>
<path opacity="0.6" d="M49.0817 74.6035C49.0817 74.6035 34.8713 108.322 32.0901 108.004C29.309 107.686 26.0511 99.4617 26.0511 99.4617L19.2968 102.706C19.2968 102.706 24.3691 115.619 32.0901 119.115C39.8111 122.612 55.8226 89.2509 55.8226 89.2509L49.0817 74.6035Z" fill="white"/>
<path d="M58.3522 58.2344C54.8029 59.8368 37.5598 91.7539 37.5598 91.7539L52.2999 102.163L59.5044 91.7539C59.5044 91.7539 61.226 90.9328 61.226 79.6625C61.1434 72.4295 60.1783 65.2336 58.3522 58.2344Z" fill="#407BFF"/>
<path d="M202.814 203.372L202.983 203.134C203.275 202.722 203.178 202.152 202.767 201.86L196.772 197.606C196.361 197.314 195.79 197.411 195.498 197.823L195.33 198.06C195.038 198.472 195.134 199.042 195.546 199.334L201.54 203.588C201.952 203.88 202.522 203.783 202.814 203.372Z" fill="#263238"/>
<path d="M20.9725 65.4458L12.6798 77.132L4.55782 71.3685C3.349 70.5107 2.53045 69.2079 2.28224 67.7466C2.03403 66.2853 2.37649 64.7852 3.23428 63.5764L5.05836 61.0058C5.91615 59.797 7.21901 58.9785 8.68032 58.7303C10.1416 58.4821 11.6417 58.8245 12.8505 59.6823L20.9725 65.4458Z" fill="#263238"/>
<path d="M172.803 202.245L199.41 202.602L201.065 200.271L191.874 175.268C183.807 173.7 176.162 170.446 169.439 165.719L18.5552 60.3265C18.1696 60.0572 17.6935 59.9507 17.2299 60.03C16.7664 60.1093 16.3527 60.3681 16.0786 60.7503L6.64921 73.9939C6.5135 74.1834 6.41646 74.3979 6.36365 74.6249C6.31083 74.852 6.30327 75.0872 6.3414 75.3172C6.37953 75.5472 6.46259 75.7674 6.58585 75.9653C6.70911 76.1632 6.87015 76.3348 7.05977 76.4704L156.355 184.128C163.043 188.913 168.648 195.055 172.803 202.152V202.245Z" fill="#263238"/>
<path opacity="0.3" d="M172.79 202.245C168.65 195.141 163.053 188.994 156.368 184.207L120.359 158.25L119.114 157.349L117.882 156.462L18.6479 84.9464L17.4162 84.0459L16.1714 83.1586L7.04652 76.5368C6.85838 76.4014 6.69881 76.2301 6.57697 76.0329C6.45513 75.8357 6.37341 75.6164 6.3365 75.3876C6.29959 75.1588 6.30821 74.9249 6.36188 74.6994C6.41554 74.4738 6.51318 74.2612 6.64921 74.0735L16.0786 60.8299C16.3483 60.4465 16.7587 60.1853 17.2202 60.1035C17.6817 60.0216 18.1569 60.1256 18.542 60.3928L27.8125 66.8292L29.1368 67.7165L30.395 68.5906L130.689 138.596L133.205 140.344L169.585 165.746C172.984 168.121 176.619 170.14 180.432 171.771C184.16 173.365 188.05 174.551 192.033 175.307L192.443 176.407L193.079 178.155L201.171 200.298L199.516 202.629L175.929 202.324H174.061L172.79 202.245Z" fill="white"/>
<path d="M169.104 179.744L169.464 179.236C170.107 178.33 169.894 177.073 168.987 176.43L137.525 154.104C136.618 153.461 135.362 153.674 134.718 154.581L134.358 155.088C133.715 155.995 133.928 157.251 134.835 157.895L166.297 180.221C167.204 180.864 168.46 180.651 169.104 179.744Z" fill="#263238"/>
<g opacity="0.2">
<path opacity="0.2" d="M173.955 202.258L192.338 176.367L192.973 178.115L175.823 202.285L173.955 202.258Z" fill="black"/>
</g>
<g opacity="0.2">
<path opacity="0.2" d="M133.099 140.318L130.583 138.57L117.882 156.462L119.127 157.362L120.359 158.263L133.099 140.318Z" fill="black"/>
</g>
<g opacity="0.2">
<path opacity="0.2" d="M30.3023 68.5509L28.9779 67.6769L27.733 66.7896L16.1317 83.1321L17.456 84.0194L18.6877 84.92L30.3023 68.5509Z" fill="black"/>
</g>
<path d="M133.933 134.266L132.688 136.53C131.855 136.453 131.014 136.548 130.219 136.81C129.423 137.072 128.691 137.495 128.066 138.053C128.066 138.053 128.94 143.232 129.245 143.894C129.934 145.351 137.416 148.926 139.217 148.913C139.787 148.913 140.317 145.112 139.972 143.894C139.149 142.31 138.139 140.829 136.966 139.484L137.986 137.484L133.933 134.266Z" fill="#E4897B"/>
<path d="M118.822 70.1401C118.822 70.1401 141.747 86.6814 148.316 104.759C153.242 118.347 138.502 139.576 138.502 139.576L132.278 134.981C132.278 134.981 142.634 114.983 139.986 106.626C137.337 98.2695 124.689 89.979 124.689 89.979L118.822 70.1401Z" fill="#407BFF"/>
<path opacity="0.6" d="M118.822 70.1401C118.822 70.1401 141.747 86.6814 148.316 104.759C153.242 118.347 138.502 139.576 138.502 139.576L132.278 134.981C132.278 134.981 142.634 114.983 139.986 106.626C137.337 98.2695 124.689 89.979 124.689 89.979L118.822 70.1401Z" fill="white"/>
<path d="M141.283 88.1384L133.894 100.799L130.252 99.2233L124.107 96.5746L120.557 80.8279L115.538 58.5522C121.683 61.4658 141.283 88.1384 141.283 88.1384Z" fill="#407BFF"/>
<path d="M25.3095 99.8322L23.7865 94.9718C23.7865 94.9718 26.0379 94.5083 26.0511 92.5217C26.0644 90.5352 25.8525 85.6616 24.9122 84.6948C22.5923 82.8409 20.1401 81.1589 17.5752 79.6622C16.4098 79.0663 15.1516 83.5293 15.0987 85.4762C15.0457 87.423 19.2969 93.8064 19.2969 93.8064L21.0318 101.872L25.3095 99.8322Z" fill="#E4897B"/>
<path opacity="0.2" d="M130.252 99.1966L124.107 96.5479L120.557 80.8013C124.332 84.92 130.026 92.204 130.252 99.1966Z" fill="black"/>
</svg>
