<svg width="665" height="408" viewBox="0 0 665 408" fill="none" xmlns="http://www.w3.org/2000/svg">
<path d="M363.189 346.226V387.558H356.291V392.075H363.189V419.734H492.222V394.532H482.668V389.051H492.222V380.83H496.474V377.05H491.428V346.226H363.189Z" fill="#F5F5F5"/>
<path d="M457.967 346.349V419.242H492.222V394.078H482.668V389.051L492.222 389.221V381L496.549 381.01L496.474 376.757L491.428 376.635V346.226L457.967 346.349Z" fill="#E0E0E0"/>
<path d="M460.405 391.451C460.405 391.706 437.065 391.905 408.282 391.905C379.499 391.905 356.14 391.706 356.14 391.451C356.14 391.196 379.48 390.988 408.282 390.988C437.084 390.988 460.405 391.196 460.405 391.451Z" fill="#E0E0E0"/>
<path d="M460.405 387.256C460.405 387.502 437.065 387.71 408.282 387.71C379.499 387.71 356.14 387.502 356.14 387.256C356.14 387.01 379.48 386.793 408.282 386.793C437.084 386.793 460.405 387.001 460.405 387.256Z" fill="#E0E0E0"/>
<path d="M467.133 375.954C467.133 376.209 443.793 376.408 415 376.408C386.208 376.408 362.868 376.209 362.868 375.954C362.868 375.699 386.208 375.491 415 375.491C443.793 375.491 467.133 375.699 467.133 375.954Z" fill="#E0E0E0"/>
<path d="M467.747 406.741C467.747 406.996 444.407 407.204 415.615 407.204C386.822 407.204 363.482 406.996 363.482 406.741C363.482 406.486 386.813 406.25 415.615 406.25C444.417 406.25 467.747 406.495 467.747 406.741Z" fill="#E0E0E0"/>
<path d="M145.66 222.196L95.5292 215.81L87.7636 276.767L137.894 283.153L145.66 222.196Z" fill="white"/>
<path d="M145.662 222.199L95.5317 215.812L89.7532 261.172L139.884 267.558L145.662 222.199Z" fill="#EBEBEB"/>
<path d="M120.8 270.328C120.8 270.413 114.289 269.667 106.295 268.646C98.3009 267.626 91.828 266.756 91.8374 266.633C91.8469 266.51 98.3387 267.295 106.342 268.306C114.346 269.317 120.81 270.234 120.8 270.328Z" fill="#E0E0E0"/>
<path d="M104.027 271.358C104.027 271.443 101.192 271.159 97.715 270.725C95.6081 270.523 93.5136 270.207 91.4405 269.78C93.5545 269.876 95.6617 270.088 97.7528 270.413C99.8597 270.615 101.954 270.931 104.027 271.358Z" fill="#E0E0E0"/>
<path d="M137.904 283.151C137.897 283.053 137.897 282.955 137.904 282.858C137.904 282.65 137.96 282.366 137.998 281.998C138.093 281.242 138.225 280.108 138.404 278.691C138.764 275.799 139.293 271.575 139.954 266.217C141.296 255.511 143.214 240.288 145.482 222.173L145.614 222.343L95.5322 215.974L95.7306 215.823C92.8958 238.37 90.1649 259.291 87.9348 276.782L87.8119 276.621L124.155 281.346L134.313 282.678L136.997 283.037L137.941 283.17L136.997 283.066L134.341 282.744L124.211 281.516L87.7552 276.942H87.6135V276.801C89.8247 259.357 92.4894 238.379 95.3526 215.842V215.672H95.5227L145.605 222.079H145.756V222.23C143.413 240.382 141.447 255.634 140.086 266.349C139.397 271.688 138.839 275.893 138.471 278.785C138.282 280.212 138.13 281.308 138.036 282.055L137.913 282.896C137.923 283.056 137.904 283.151 137.904 283.151Z" fill="#E0E0E0"/>
<path d="M72.6409 193.08L22.5136 199.492L30.311 260.445L80.4384 254.033L72.6409 193.08Z" fill="#F5F5F5"/>
<path d="M72.6479 193.073L22.5205 199.485L28.3228 244.842L78.4501 238.429L72.6479 193.073Z" fill="#E0E0E0"/>
<path d="M60.673 245.91C60.673 245.995 54.2096 246.903 46.2153 247.932C38.221 248.962 31.7293 249.709 31.7198 249.615C31.7104 249.52 38.1738 248.613 46.1775 247.592C54.1812 246.572 60.6636 245.816 60.673 245.91Z" fill="#E0E0E0"/>
<path d="M44.7412 251.117C42.6716 251.546 40.5801 251.861 38.4762 252.062C36.3851 252.387 34.2779 252.598 32.1639 252.695C34.2346 252.273 36.3257 251.958 38.4289 251.75C40.52 251.425 42.6272 251.214 44.7412 251.117V251.117Z" fill="#E0E0E0"/>
<path d="M80.4508 254.027C80.4508 254.027 80.4508 253.924 80.4035 253.735C80.3563 253.546 80.3374 253.253 80.2807 252.875C80.1862 252.119 80.035 250.985 79.846 249.577C79.4681 246.685 78.9011 242.461 78.2113 237.113L72.5416 193.088L72.7117 193.22L22.6294 199.655L22.7806 199.466C25.6154 222.003 28.3274 242.934 30.5575 260.425L30.3969 260.302L66.664 255.719L76.8694 254.453L79.5531 254.131L80.498 254.027L79.5531 254.16L76.8978 254.509L66.7774 255.842L30.3496 260.567H30.2079V260.425C27.9589 242.981 25.2658 222.013 22.3743 199.476V199.306H22.5443L72.6266 192.908H72.7778V193.059C75.074 211.221 77.0017 226.473 78.353 237.198C79.0145 242.537 79.5436 246.751 79.9027 249.643C80.0823 251.07 80.2146 252.166 80.3091 252.922C80.3091 253.281 80.3846 253.555 80.4035 253.753L80.4508 254.027Z" fill="#E0E0E0"/>
<path d="M119.205 185.649L70.0163 174.057L55.9215 233.869L105.11 245.46L119.205 185.649Z" fill="white"/>
<path d="M119.203 185.641L70.015 174.05L59.5268 218.557L108.715 230.148L119.203 185.641Z" fill="#EBEBEB"/>
<path d="M89.4467 230.914C89.4467 230.999 83.0494 229.582 75.2063 227.73C67.3633 225.878 61.0321 224.309 61.0321 224.214C61.0321 224.12 67.4389 225.547 75.2819 227.399C83.125 229.251 89.475 230.82 89.4467 230.914Z" fill="#E0E0E0"/>
<path d="M72.6644 230.187C70.5808 229.86 68.515 229.428 66.475 228.892C64.4036 228.462 62.3565 227.923 60.3423 227.276C62.428 227.604 64.4942 228.046 66.5317 228.599C68.6032 229.017 70.6505 229.547 72.6644 230.187V230.187Z" fill="#E0E0E0"/>
<path d="M105.123 245.457L105.18 245.164C105.18 244.965 105.284 244.691 105.369 244.323C105.539 243.576 105.794 242.49 106.116 241.072C106.777 238.237 107.741 234.089 108.95 228.835C111.407 218.327 114.894 203.388 119.052 185.604L119.165 185.793L69.9902 174.217L70.1887 174.094C64.9725 196.206 60.1155 216.778 56.0711 233.9L55.9672 233.73L91.6201 242.235L101.58 244.616L104.216 245.258L105.161 245.485L104.273 245.296L101.627 244.663L91.6768 242.357L55.901 234.004H55.7593V233.862L69.8201 174.047V173.877H69.9902L119.175 185.481H119.317V185.632C115.093 203.435 111.54 218.393 109.045 228.92C107.798 234.155 106.805 238.275 106.135 241.11C105.794 242.509 105.539 243.586 105.36 244.323C105.265 244.673 105.199 244.947 105.152 245.136L105.123 245.457Z" fill="#E0E0E0"/>
<path d="M602.534 219.01L550.509 238.918L574.719 302.187L626.745 282.279L602.534 219.01Z" fill="white"/>
<path d="M602.529 219.011L550.504 238.919L568.521 286.003L620.546 266.095L602.529 219.011Z" fill="#EBEBEB"/>
<path d="M603.452 278.681C603.452 278.785 596.837 281.431 588.493 284.616C580.149 287.8 573.43 290.285 573.374 290.191C573.317 290.096 579.988 287.441 588.332 284.257C596.676 281.072 603.414 278.606 603.452 278.681Z" fill="#E0E0E0"/>
<path d="M587.69 288.442C583.429 290.34 579.07 292.009 574.631 293.441C576.736 292.435 578.893 291.542 581.094 290.767C583.25 289.877 585.452 289.101 587.69 288.442Z" fill="#E0E0E0"/>
<path d="M626.744 282.253C626.744 282.253 626.745 282.149 626.622 281.951L626.272 281.072C625.97 280.288 625.526 279.182 624.94 277.642C623.787 274.646 622.105 270.271 619.95 264.724C577.626 238.644 584.137 227.805 602.374 219.046L602.592 219.14L550.619 239.069L550.733 238.833C559.672 262.23 567.997 283.992 574.914 302.144L574.716 302.059L612.514 287.696C617.059 285.967 620.631 284.616 623.078 283.699L625.866 282.65L626.811 282.291L625.866 282.669L623.05 283.699L612.551 287.762L574.753 302.315L574.602 302.371L574.546 302.22L550.336 238.993L550.27 238.814L550.44 238.748L602.469 218.904L602.62 218.847L602.677 218.998C609.858 237.897 615.906 253.697 620.13 264.838C622.237 270.385 623.91 274.76 625.034 277.755L626.31 281.167L626.641 282.036L626.744 282.253Z" fill="#E0E0E0"/>
<path d="M652.407 90.9434L531.885 106.639C528.578 107.07 526.247 110.1 526.677 113.407L530.801 145.069C531.231 148.376 534.261 150.708 537.568 150.277L658.09 134.581C661.397 134.15 663.728 131.121 663.298 127.814L659.174 96.1512C658.743 92.8443 655.713 90.5127 652.407 90.9434Z" fill="#FAFAFA"/>
<path d="M530.813 145.056C530.813 145.056 530.813 145.359 531.012 145.916C531.253 146.754 531.676 147.528 532.25 148.184C533.181 149.255 534.458 149.964 535.859 150.187C536.754 150.289 537.66 150.251 538.543 150.074L541.605 149.668L578.24 144.83L632.584 137.714L648.299 135.664L656.406 134.605C657.087 134.501 657.786 134.445 658.448 134.312C659.114 134.189 659.754 133.949 660.337 133.604C661.511 132.897 662.403 131.805 662.86 130.514C663.093 129.872 663.205 129.193 663.191 128.51C663.191 127.839 663.049 127.131 662.964 126.431C662.785 125.024 662.596 123.597 662.416 122.198C662.038 119.363 661.67 116.528 661.292 113.646C660.542 107.888 659.783 102.061 659.015 96.1648C658.826 94.7282 658.113 93.4121 657.012 92.47C655.911 91.5279 654.5 91.0264 653.052 91.062C650.17 91.3739 647.25 91.7991 644.387 92.1582L627.378 94.3694L595.249 98.5366L540.896 105.576L535.226 106.314L532.495 106.663C531.619 106.723 530.762 106.95 529.972 107.334C529.222 107.711 528.561 108.243 528.031 108.894C527.502 109.546 527.117 110.302 526.901 111.114C526.457 112.701 526.901 114.308 527.071 115.839C527.865 121.99 528.536 127.282 529.094 131.61C529.651 135.938 530.038 139.292 530.36 141.579C530.501 142.713 530.605 143.582 530.681 144.168C530.757 144.754 530.776 145.056 530.776 145.056C530.776 145.056 530.719 144.754 530.643 144.178C530.568 143.601 530.435 142.722 530.284 141.588C529.982 139.302 529.528 135.919 528.952 131.629C528.375 127.339 527.676 122.009 526.863 115.867C526.769 115.102 526.665 114.317 526.561 113.523C526.442 112.701 526.484 111.864 526.684 111.057C526.906 110.214 527.303 109.427 527.85 108.748C528.397 108.069 529.082 107.513 529.859 107.117C530.677 106.724 531.562 106.487 532.467 106.417L535.188 106.058L540.858 105.321L595.24 98.1964L627.368 94.0008L644.377 91.7897C647.212 91.4306 650.123 91.0054 653.08 90.6841C654.622 90.6456 656.123 91.1796 657.294 92.1831C658.465 93.1865 659.223 94.5882 659.421 96.1175C660.196 102.014 660.955 107.841 661.698 113.599C662.076 116.472 662.448 119.307 662.813 122.104C663.002 123.521 663.182 124.938 663.361 126.337C663.446 127.036 663.569 127.726 663.598 128.463C663.606 129.188 663.484 129.908 663.238 130.589C662.884 131.613 662.265 132.525 661.446 133.233C660.626 133.942 659.635 134.421 658.57 134.624C657.871 134.756 657.2 134.813 656.51 134.917L648.337 135.994L632.632 138.035L578.278 145.075L541.624 149.8L538.562 150.187C537.669 150.364 536.753 150.396 535.85 150.282C534.425 150.052 533.128 149.322 532.193 148.222C531.619 147.556 531.206 146.767 530.983 145.916C530.917 145.704 530.87 145.485 530.842 145.264L530.813 145.056Z" fill="#263238"/>
<path d="M655.288 133.152L650.06 93.0093L629.492 95.6879L634.72 135.83L655.288 133.152Z" fill="#0085FF"/>
<path d="M626.157 136.939L620.929 96.7964L600.362 99.475L605.589 139.618L626.157 136.939Z" fill="#0085FF"/>
<path d="M597.028 140.734L591.8 100.591L571.232 103.27L576.46 143.413L597.028 140.734Z" fill="#0085FF"/>
<path d="M567.897 144.53L562.669 104.387L542.101 107.066L547.329 147.208L567.897 144.53Z" fill="#0085FF"/>
<g opacity="0.5">
<path opacity="0.5" d="M655.288 133.152L650.06 93.0093L629.492 95.6879L634.72 135.83L655.288 133.152Z" fill="black"/>
</g>
<g opacity="0.6">
<path opacity="0.6" d="M626.157 136.94L620.929 96.7969L600.361 99.4755L605.589 139.618L626.157 136.94Z" fill="black"/>
</g>
<g opacity="0.7">
<path opacity="0.7" d="M597.028 140.734L591.8 100.591L571.232 103.27L576.46 143.413L597.028 140.734Z" fill="black"/>
</g>
<g opacity="0.8">
<path opacity="0.8" d="M567.897 144.53L562.669 104.388L542.101 107.066L547.329 147.209L567.897 144.53Z" fill="black"/>
</g>
<path d="M530.804 139.481L516.497 111.756C515.719 110.245 515.573 108.486 516.09 106.867C516.607 105.247 517.746 103.9 519.257 103.119L626.612 47.7357C627.359 47.3491 628.175 47.1135 629.013 47.0424C629.851 46.9713 630.695 47.0662 631.496 47.3216C632.297 47.577 633.04 47.988 633.683 48.5309C634.325 49.0737 634.854 49.738 635.24 50.4855L649.508 78.2103C649.895 78.9585 650.13 79.7755 650.201 80.6146C650.271 81.4538 650.175 82.2986 649.919 83.1008C649.663 83.9029 649.251 84.6467 648.707 85.2895C648.163 85.9324 647.498 86.4617 646.749 86.8472L539.431 142.231C538.684 142.617 537.869 142.853 537.03 142.924C536.192 142.995 535.349 142.9 534.547 142.645C533.746 142.389 533.003 141.978 532.361 141.435C531.718 140.893 531.189 140.228 530.804 139.481Z" fill="#FAFAFA"/>
<path d="M530.804 139.481C530.85 139.541 530.891 139.604 530.927 139.67C531.012 139.793 531.106 139.991 531.286 140.227C531.785 140.934 532.43 141.527 533.176 141.966C534.382 142.707 535.805 143.017 537.211 142.845C538.098 142.732 538.956 142.446 539.734 142.004L542.474 140.577L575.235 123.615L623.834 98.4889L637.885 91.2412L645.143 87.4614C646.406 86.953 647.553 86.1944 648.516 85.2313C649.186 84.4677 649.659 83.5521 649.895 82.564C650.13 81.5759 650.121 80.5452 649.867 79.5616C649.666 78.9041 649.393 78.2704 649.055 77.6717L647.099 73.8919L643.149 66.2378L635.079 50.5989C634.418 49.3096 633.327 48.292 631.995 47.7225C630.662 47.153 629.173 47.0674 627.784 47.4806C627.102 47.7136 626.444 48.011 625.818 48.3689L623.872 49.3705L619.998 51.3738L604.812 59.1885L576.086 73.9959L527.449 99.0464L522.384 101.655L519.946 102.921C519.139 103.273 518.4 103.766 517.764 104.376C516.879 105.251 516.274 106.37 516.027 107.59C515.779 108.81 515.9 110.076 516.374 111.227C516.677 111.945 517.083 112.635 517.423 113.325L524.671 127.442C526.646 131.316 528.186 134.321 529.235 136.372C529.755 137.392 530.18 138.167 530.416 138.696C530.653 139.226 530.804 139.5 530.804 139.5C530.804 139.5 530.653 139.235 530.379 138.715L529.169 136.41C528.111 134.369 526.542 131.373 524.539 127.508L517.216 113.41C516.866 112.71 516.478 112.039 516.148 111.293C515.668 110.098 515.548 108.789 515.801 107.527C516.055 106.265 516.671 105.104 517.575 104.187C518.231 103.564 518.988 103.056 519.814 102.685L522.252 101.428L527.308 98.8102L575.916 73.684L604.623 58.8578L619.809 51.0242L623.683 49.0209L625.629 48.0192C626.275 47.6398 626.955 47.3234 627.661 47.0743C629.133 46.644 630.709 46.7386 632.119 47.3419C633.529 47.9452 634.686 49.0197 635.391 50.3816L643.48 66.0677L647.429 73.7218L649.376 77.5016C649.735 78.1238 650.017 78.7869 650.217 79.4766C650.408 80.1745 650.478 80.9 650.425 81.6216C650.322 83.0664 649.748 84.4374 648.79 85.5242C648.322 86.0586 647.766 86.5092 647.146 86.8566C646.532 87.2062 645.918 87.4992 645.313 87.8016L638.046 91.5814L623.995 98.8008L575.358 123.851L542.55 140.719L539.809 142.127C539.011 142.57 538.135 142.855 537.23 142.968C535.798 143.118 534.358 142.785 533.138 142.023C532.385 141.572 531.741 140.962 531.248 140.237C531.119 140.056 531.002 139.866 530.898 139.67C530.864 139.608 530.832 139.545 530.804 139.481Z" fill="#263238"/>
<path d="M643.996 86.2976L625.435 50.3218L607.002 59.8317L625.563 95.8076L643.996 86.2976Z" fill="#0085FF"/>
<path d="M617.886 99.7664L599.325 63.7905L580.892 73.3004L599.453 109.276L617.886 99.7664Z" fill="#0085FF"/>
<path d="M591.789 113.239L573.228 77.2632L554.795 86.7731L573.356 122.749L591.789 113.239Z" fill="#0085FF"/>
<path d="M565.687 126.703L547.126 90.7275L528.693 100.237L547.254 136.213L565.687 126.703Z" fill="#0085FF"/>
<g opacity="0.1">
<path opacity="0.1" d="M643.996 86.2976L625.435 50.3218L607.002 59.8317L625.563 95.8076L643.996 86.2976Z" fill="black"/>
</g>
<g opacity="0.2">
<path opacity="0.2" d="M617.886 99.7659L599.325 63.79L580.892 73.3L599.453 109.276L617.886 99.7659Z" fill="black"/>
</g>
<g opacity="0.3">
<path opacity="0.3" d="M591.789 113.239L573.228 77.2632L554.795 86.7731L573.356 122.749L591.789 113.239Z" fill="black"/>
</g>
<g opacity="0.4">
<path opacity="0.4" d="M565.687 126.703L547.126 90.7275L528.693 100.237L547.254 136.213L565.687 126.703Z" fill="black"/>
</g>
<path d="M534.083 138.886L510.28 119.373C509.606 118.824 509.048 118.147 508.636 117.382C508.224 116.618 507.967 115.779 507.879 114.915C507.791 114.05 507.875 113.177 508.124 112.345C508.374 111.513 508.785 110.738 509.335 110.065L585.658 16.9309C586.207 16.2576 586.883 15.6991 587.648 15.2872C588.413 14.8753 589.252 14.6182 590.116 14.5304C590.981 14.4427 591.854 14.526 592.686 14.7758C593.518 15.0255 594.293 15.4367 594.966 15.9859L618.779 35.4991C619.452 36.0482 620.01 36.7245 620.422 37.4894C620.834 38.2544 621.091 39.0929 621.179 39.9573C621.267 40.8216 621.183 41.6948 620.934 42.5269C620.684 43.359 620.273 44.1337 619.724 44.8069L543.428 137.922C542.88 138.602 542.203 139.167 541.435 139.584C540.668 140.001 539.825 140.262 538.956 140.351C538.088 140.441 537.21 140.358 536.373 140.106C535.537 139.855 534.758 139.44 534.083 138.886V138.886Z" fill="#FAFAFA"/>
<path d="M534.083 138.886L534.272 139.008C534.395 139.084 534.565 139.235 534.82 139.377C535.558 139.831 536.381 140.13 537.239 140.256C538.637 140.471 540.068 140.233 541.321 139.575C542.861 138.857 543.91 137.147 545.318 135.493L568.63 106.956L603.206 64.6598L613.213 52.4416L618.382 46.1294C619.334 45.1542 620.097 44.0102 620.631 42.7559C621.071 41.4671 621.098 40.0728 620.706 38.7682C620.29 37.4506 619.474 36.295 618.372 35.4609C617.276 34.5726 616.18 33.6749 615.084 32.7678L608.45 27.3249L594.862 16.1745C593.745 15.2686 592.359 14.7571 590.922 14.7193C589.479 14.6946 588.071 15.1574 586.924 16.0327C586.367 16.4806 585.865 16.9947 585.431 17.5636L584.042 19.255C583.097 20.389 582.2 21.504 581.283 22.6285L570.426 35.8294L549.958 60.7855L515.326 103.034L511.706 107.438L509.93 109.535C509.336 110.183 508.848 110.919 508.484 111.718C507.83 113.28 507.807 115.034 508.418 116.613C508.708 117.359 509.138 118.042 509.684 118.626C510.236 119.18 510.823 119.697 511.442 120.176L523.726 130.239C527.081 133.008 529.679 135.162 531.456 136.618L533.459 138.29C533.913 138.659 534.13 138.867 534.13 138.867L533.431 138.319L531.39 136.693L523.613 130.372L511.329 120.355C510.702 119.872 510.106 119.351 509.543 118.796C508.978 118.188 508.532 117.48 508.229 116.708C507.591 115.076 507.612 113.26 508.286 111.643C508.653 110.822 509.151 110.065 509.76 109.403L511.499 107.277L515.099 102.874L549.712 60.5682L570.133 35.5932L580.952 22.3639L583.712 18.9904C584.175 18.4329 584.657 17.8659 585.091 17.299C585.547 16.7077 586.07 16.1717 586.65 15.702C587.872 14.7798 589.367 14.2944 590.897 14.3235C592.427 14.3526 593.903 14.8946 595.089 15.8627L608.687 27.0319L615.348 32.4843L618.627 35.1774C619.789 36.0516 620.648 37.2676 621.084 38.6548C621.501 40.0367 621.471 41.5148 620.999 42.8787C620.77 43.5589 620.432 44.1972 619.998 44.7686C619.572 45.3262 619.128 45.8364 618.694 46.3751C616.955 48.5043 615.232 50.6084 613.525 52.6873C610.104 56.8451 606.765 60.9147 603.508 64.896L568.838 107.145L545.432 135.607L543.476 137.988C542.738 138.9 541.77 139.6 540.673 140.015C539.575 140.43 538.387 140.546 537.23 140.35C536.362 140.21 535.535 139.888 534.801 139.405C534.551 139.247 534.311 139.074 534.083 138.886Z" fill="#263238"/>
<path d="M617.093 45.2524L585.78 19.5957L572.634 35.6395L603.947 61.2962L617.093 45.2524Z" fill="#0085FF"/>
<path d="M598.469 67.9696L567.156 42.313L554.011 58.3568L585.323 84.0135L598.469 67.9696Z" fill="#0085FF"/>
<path d="M579.85 90.6952L548.537 65.0386L535.391 81.0824L566.704 106.739L579.85 90.6952Z" fill="#0085FF"/>
<path d="M561.233 113.419L529.921 87.7622L516.775 103.806L548.088 129.463L561.233 113.419Z" fill="#0085FF"/>
<g opacity="0.5">
<path opacity="0.5" d="M617.093 45.2519L585.78 19.5952L572.634 35.639L603.947 61.2957L617.093 45.2519Z" fill="white"/>
</g>
<g opacity="0.6">
<path opacity="0.6" d="M598.469 67.9696L567.156 42.313L554.011 58.3568L585.323 84.0135L598.469 67.9696Z" fill="white"/>
</g>
<g opacity="0.7">
<path opacity="0.7" d="M579.85 90.6957L548.537 65.0391L535.391 81.0829L566.704 106.74L579.85 90.6957Z" fill="white"/>
</g>
<g opacity="0.8">
<path opacity="0.8" d="M561.233 113.419L529.921 87.7622L516.775 103.806L548.088 129.463L561.233 113.419Z" fill="white"/>
</g>
<path d="M535.448 5.87822L499.676 121.797C498.674 125.043 500.494 128.487 503.74 129.489L534.033 138.837C537.28 139.839 540.724 138.019 541.725 134.773L577.497 18.8545C578.499 15.6082 576.68 12.1643 573.433 11.1625L543.14 1.81407C539.894 0.812252 536.45 2.63184 535.448 5.87822Z" fill="#FAFAFA"/>
<path d="M534.055 138.829C534.341 138.904 534.631 138.964 534.924 139.008C536.049 139.177 537.198 139.028 538.243 138.579C539.288 138.13 540.187 137.398 540.839 136.466C541.334 135.716 541.692 134.884 541.898 134.01L542.843 131.052L553.672 95.7486L569.774 43.389C571.286 38.469 572.838 33.4293 574.432 28.2699L576.842 20.4551C577.04 19.8031 577.267 19.1322 577.437 18.4802C577.592 17.8244 577.643 17.1485 577.588 16.4769C577.44 15.1202 576.841 13.8525 575.887 12.8766C575.412 12.3865 574.852 11.9864 574.234 11.6955C573.592 11.4222 572.932 11.1949 572.259 11.0151L568.186 9.75831L559.946 7.2164L543.107 2.01918C541.72 1.59358 540.225 1.68764 538.902 2.28377C537.579 2.86453 536.519 3.91493 535.926 5.23201C535.642 5.87457 535.453 6.60218 535.226 7.29199L534.584 9.37088C534.158 10.7694 533.724 12.2057 533.299 13.5381C531.591 19.0755 529.906 24.5279 528.243 29.8952L518.699 60.8044L502.503 113.136L500.811 118.588C500.537 119.476 500.263 120.346 499.999 121.215C499.687 122.036 499.534 122.908 499.545 123.785C499.566 124.624 499.763 125.45 500.123 126.208C500.482 126.967 500.997 127.641 501.633 128.189C502.852 129.313 504.468 129.559 505.961 130.079L521.137 134.803L530.719 137.789L533.204 138.583L534.055 138.857L533.195 138.621L530.7 137.865L521.09 134.936L505.876 130.324L503.618 129.625C502.388 129.227 501.312 128.459 500.537 127.425C499.763 126.391 499.327 125.143 499.29 123.851C499.274 122.946 499.428 122.045 499.743 121.196C500.017 120.336 500.282 119.457 500.556 118.569C501.095 116.802 501.662 114.978 502.229 113.117C506.821 98.196 512.302 80.4216 518.368 60.7099C521.402 50.8541 524.596 40.5164 527.903 29.7912C529.557 24.4334 531.239 18.9716 532.94 13.4436C533.374 12.0545 533.799 10.6655 534.225 9.26694L534.877 7.1786C535.074 6.46386 535.311 5.76041 535.585 5.07137C536.215 3.67258 537.339 2.55545 538.742 1.93414C540.151 1.2993 541.743 1.19855 543.221 1.65065L560.06 6.84787L568.299 9.37088L572.363 10.6277C573.053 10.8158 573.728 11.0526 574.385 11.3364C575.04 11.6496 575.637 12.0713 576.152 12.5837C577.161 13.6271 577.793 14.9772 577.947 16.4202C578.012 17.1298 577.958 17.8452 577.787 18.5369C577.607 19.2361 577.39 19.8693 577.191 20.5307C576.379 23.1671 575.576 25.7657 574.772 28.3455C573.185 33.5049 571.629 38.5446 570.104 43.4646L553.908 95.7959L542.956 131.071C542.635 132.11 542.332 133.093 542.011 134.019C541.869 134.482 541.728 134.964 541.567 135.351L541.274 135.956C541.151 136.136 541.047 136.325 540.924 136.504C540.096 137.684 538.878 138.534 537.485 138.904C536.639 139.142 535.751 139.187 534.886 139.037C534.665 139.002 534.447 138.952 534.234 138.886L534.055 138.829Z" fill="#263238"/>
<path d="M575.114 20.6865L536.433 8.74951L530.317 28.5689L568.998 40.5059L575.114 20.6865Z" fill="#0085FF"/>
<path d="M566.449 48.7568L527.767 36.8198L521.651 56.6392L560.333 68.5762L566.449 48.7568Z" fill="#0085FF"/>
<path d="M557.79 76.8291L519.109 64.8921L512.992 84.7115L551.674 96.6485L557.79 76.8291Z" fill="#0085FF"/>
<path d="M549.125 104.887L510.453 92.9526L504.337 112.772L543.009 124.706L549.125 104.887Z" fill="#0085FF"/>
<g opacity="0.2">
<path opacity="0.2" d="M566.449 48.7568L527.767 36.8198L521.651 56.6392L560.333 68.5762L566.449 48.7568Z" fill="white"/>
</g>
<g opacity="0.3">
<path opacity="0.3" d="M557.79 76.8291L519.109 64.8921L512.992 84.7115L551.674 96.6485L557.79 76.8291Z" fill="white"/>
</g>
<g opacity="0.4">
<path opacity="0.4" d="M549.125 104.887L510.453 92.9526L504.337 112.772L543.009 124.706L549.125 104.887Z" fill="white"/>
</g>
<g opacity="0.1">
<path opacity="0.1" d="M575.114 20.6865L536.433 8.74951L530.317 28.5689L568.998 40.5059L575.114 20.6865Z" fill="white"/>
</g>
<path d="M538.515 132.488C538.035 133.326 537.318 134.001 536.453 134.43C535.589 134.858 534.617 135.02 533.66 134.895C532.703 134.77 531.805 134.363 531.081 133.726C530.356 133.09 529.836 132.252 529.589 131.319C529.341 130.387 529.376 129.402 529.689 128.489C530.002 127.577 530.58 126.778 531.348 126.194C532.116 125.611 533.041 125.269 534.004 125.212C534.967 125.155 535.925 125.385 536.757 125.874C537.862 126.523 538.666 127.581 538.995 128.82C539.324 130.058 539.152 131.376 538.515 132.488V132.488Z" fill="#455A64"/>
<path d="M538.515 132.489C538.515 132.489 538.713 132.101 538.912 131.364C539.187 130.322 539.108 129.218 538.685 128.227C538.38 127.496 537.897 126.854 537.28 126.358C536.662 125.863 535.93 125.531 535.151 125.392C534.235 125.23 533.291 125.342 532.439 125.713C531.52 126.109 530.75 126.786 530.241 127.647C529.731 128.508 529.508 129.509 529.604 130.504C529.697 131.429 530.066 132.305 530.662 133.018C531.163 133.627 531.809 134.101 532.54 134.396C533.271 134.691 534.065 134.799 534.848 134.709C535.917 134.587 536.915 134.111 537.683 133.358C538.222 132.829 538.43 132.413 538.458 132.413C538.486 132.413 538.458 132.517 538.326 132.697C538.174 132.956 537.993 133.196 537.787 133.415C537.02 134.244 535.987 134.779 534.867 134.927C534.094 135.025 533.309 134.948 532.571 134.7C531.721 134.401 530.967 133.878 530.388 133.188C529.74 132.427 529.338 131.488 529.235 130.495C529.14 129.427 529.39 128.357 529.947 127.442C530.505 126.527 531.342 125.815 532.335 125.411C532.946 125.147 533.604 125.008 534.27 125.002C534.936 124.996 535.596 125.122 536.213 125.375C536.829 125.628 537.388 126.001 537.858 126.473C538.328 126.945 538.699 127.506 538.949 128.123C539.373 129.168 539.416 130.328 539.072 131.402C538.99 131.694 538.869 131.974 538.713 132.234C538.59 132.404 538.533 132.498 538.515 132.489Z" fill="#263238"/>
<path d="M511.007 37.1333H190.462V250.833H511.007V37.1333Z" fill="#FAFAFA"/>
<path d="M511.017 250.834C511.017 249.227 510.941 167.385 510.818 37.1334L511.017 37.3224L190.49 37.3791L190.736 37.1334C190.736 113.23 190.736 185.613 190.736 250.834L190.509 250.607L511.064 250.834L190.509 251.051H190.263V250.834C190.263 185.632 190.263 113.23 190.263 37.1334V36.8877H190.537H511.064H511.253V37.0861C511.092 167.385 511.017 249.227 511.017 250.834Z" fill="#263238"/>
<path d="M459.829 69H208.151V77.1549H459.829V69Z" fill="#263238"/>
<path d="M491.437 56.212C491.437 56.3443 480.958 56.4577 468.031 56.4577C455.104 56.4577 444.625 56.3443 444.625 56.212C444.625 56.0797 455.095 55.9663 468.031 55.9663C480.967 55.9663 491.437 56.0703 491.437 56.212Z" fill="#263238"/>
<path d="M500.424 216.683C500.424 216.825 491.031 216.938 479.455 216.938C467.88 216.938 458.477 216.825 458.477 216.683C458.477 216.541 467.87 216.438 479.455 216.438C491.04 216.438 500.424 216.551 500.424 216.683Z" fill="#263238"/>
<path d="M459.224 230.545C458.981 227.43 458.899 224.304 458.978 221.181C458.899 218.057 458.981 214.932 459.224 211.816C459.473 214.931 459.555 218.057 459.47 221.181C459.555 224.304 459.473 227.43 459.224 230.545V230.545Z" fill="#263238"/>
<path d="M210.173 226.803C210.173 226.662 272.54 226.558 349.487 226.558C426.434 226.558 488.81 226.662 488.81 226.803C488.81 226.945 426.444 227.049 349.487 227.049C272.531 227.049 210.173 226.936 210.173 226.803Z" fill="#263238"/>
<g opacity="0.3">
<path d="M266 115C266 111.686 268.686 109 272 109H303.51C306.824 109 309.51 111.686 309.51 115V190C309.51 193.314 306.824 196 303.51 196H272C268.686 196 266 193.314 266 190V115Z" fill="#0085FF"/>
<path d="M211.5 115C211.5 111.686 214.186 109 217.5 109H249.01C252.323 109 255.01 111.686 255.01 115V190C255.01 193.314 252.324 196 249.01 196H217.5C214.186 196 211.5 193.314 211.5 190V115Z" fill="#0085FF"/>
<path d="M377.99 115C377.99 111.686 380.676 109 383.99 109H415.5C418.814 109 421.5 111.686 421.5 115V190C421.5 193.314 418.814 196 415.5 196H383.99C380.676 196 377.99 193.314 377.99 190V115Z" fill="#0085FF"/>
<path d="M321.99 115C321.99 111.686 324.676 109 327.99 109H359.5C362.814 109 365.5 111.686 365.5 115V190C365.5 193.314 362.814 196 359.5 196H327.99C324.676 196 321.99 193.314 321.99 190V115Z" fill="#0085FF"/>
<path d="M433.99 115C433.99 111.686 436.676 109 439.99 109H471.5C474.814 109 477.5 111.686 477.5 115V190C477.5 193.314 474.814 196 471.5 196H439.99C436.676 196 433.99 193.314 433.99 190V115Z" fill="#0085FF"/>
</g>
<path d="M337.042 279.853L359.636 254.755L377.429 253.356L380.132 272.605L365.74 279.04L350.026 295.586L340.491 297.76L337.042 279.853Z" fill="#EFBE9D"/>
<path d="M378.93 154.591L343.512 321.794L538.697 363.139L574.115 195.937L378.93 154.591Z" fill="white"/>
<path d="M536.431 359.972L570.56 197.345L570.716 197.583L381.523 157.432L381.807 157.248C369.34 216.235 357.598 271.832 347.458 319.821L347.293 319.573L536.44 360L347.202 320.023H347V319.812C357.131 271.823 368.855 216.226 381.303 157.239L381.349 157H381.578L570.798 197.207H571L570.954 197.409C550.171 295.335 536.789 358.319 536.431 359.972Z" fill="#263238"/>
<path d="M386.091 164.377L354.025 315.753L531.545 353.356L563.61 201.98L386.091 164.377Z" fill="#EBEBEB"/>
<path d="M531.522 353.332C531.522 353.332 531.711 352.387 532.089 350.545C532.467 348.702 533.034 345.99 533.781 342.456C535.264 335.369 537.447 324.993 540.225 311.764C545.8 285.306 553.766 247.508 563.376 201.914L563.537 202.16L386.028 164.607L386.321 164.418C374.679 219.32 363.709 271.075 354.24 315.79L354.07 315.525L482.423 342.825L518.652 350.554L528.234 352.605L530.7 353.143L531.541 353.332L530.719 353.172L528.271 352.671L518.718 350.668L482.517 343.061L354.004 315.95H353.796V315.733C363.246 271.018 374.216 219.263 385.83 164.352L385.877 164.106L386.123 164.163L563.612 201.791H563.811V201.989C554.106 247.602 546.055 285.457 540.423 311.915C537.589 325.145 535.387 335.482 533.884 342.551C533.128 346.066 532.543 348.759 532.155 350.583C531.768 352.406 531.522 353.332 531.522 353.332Z" fill="#263238"/>
<path d="M359.192 300.971L356.078 315.5L533.463 353.512L536.577 338.982L359.192 300.971Z" fill="#E0E0E0"/>
<path d="M271.954 279.135L284.758 320.164L327.404 282.366L343.468 296.078C343.468 296.078 307.276 353.606 289.719 364.435C270.244 376.455 247.074 360.655 244.144 349.061C241.215 337.466 225.793 285.485 225.793 285.485L271.954 279.135Z" fill="#EFBE9D"/>
<path d="M285.769 319.446C285.817 319.531 284.645 320.183 283.001 321.544C282.04 322.35 281.143 323.228 280.317 324.171C278.296 326.478 276.74 329.154 275.734 332.052C275.326 333.235 275.01 334.448 274.789 335.681C274.411 337.788 274.42 339.13 274.326 339.13C274.264 338.819 274.242 338.501 274.26 338.185C274.234 337.817 274.234 337.447 274.26 337.079C274.26 336.654 274.307 336.134 274.402 335.624C274.584 334.363 274.875 333.121 275.271 331.91C276.255 328.934 277.848 326.195 279.948 323.869C280.816 322.924 281.764 322.058 282.783 321.279C283.199 320.93 283.624 320.675 283.974 320.429C284.278 320.22 284.594 320.028 284.919 319.853C285.182 319.679 285.469 319.542 285.769 319.446V319.446Z" fill="#E7996E"/>
<path d="M239.901 319.853L284.758 307.748C284.758 307.748 275.139 279.296 267.655 258.734C261.04 240.6 249.956 233.05 244.192 228.949C241.864 227.278 239.16 226.207 236.32 225.831C225.708 224.413 196.68 220.596 182.278 219.395C164.466 217.912 127.264 227.72 127.264 227.72C127.264 227.72 94.6439 245.807 83.6447 253.168C80.9475 254.952 78.8861 257.546 77.7577 260.576C75.7261 266.048 73.1369 275.45 70.0375 287.611C68.0625 295.341 61.5329 320.93 61.5329 320.93L99.7939 319.749C107.505 343.165 114.649 364.162 114.649 364.162L111.549 420.254H253.443C253.443 420.254 240.346 333.489 240.346 331.476C240.346 330.739 240.166 325.778 239.901 319.853Z" fill="#0085FF"/>
<g opacity="0.3">
<path opacity="0.3" d="M195.772 274.315C192.937 270.734 188.062 269.269 183.545 269.723C179.028 270.176 174.832 272.312 171.071 274.863C159.467 282.735 151.227 294.603 143.951 306.576C131.251 327.449 120.581 349.491 112.088 372.401L112.381 378.26C121.896 377.059 128.095 369.037 132.225 360.391C136.354 351.744 138.13 342.144 141.769 333.28C148.862 316.252 162.397 302.718 179.425 295.624C185.094 296.21 191.18 294.386 194.884 290.058C198.588 285.73 199.297 278.785 195.772 274.315Z" fill="black"/>
</g>
<path d="M240.346 327.28C240.128 327.28 238.862 314.873 237.511 299.536C236.159 284.2 235.233 271.736 235.441 271.717C235.649 271.698 236.925 284.115 238.276 299.47C239.627 314.825 240.544 327.261 240.346 327.28Z" fill="#263238"/>
<path d="M89.6074 271.717C89.8633 272.325 90.0534 272.958 90.1743 273.607C90.5051 275.005 90.9303 276.791 91.4311 278.927C92.4611 283.425 93.8313 289.642 95.2959 296.531C96.7606 303.42 98.0552 309.656 98.9529 314.183C99.3592 316.337 99.6994 318.142 99.9734 319.55C100.129 320.204 100.218 320.872 100.238 321.544C99.9938 320.933 99.8072 320.3 99.6805 319.654C99.3498 318.255 98.9245 316.47 98.4237 314.334C97.3937 309.836 96.0236 303.618 94.5494 296.73C93.0753 289.841 91.7996 283.604 90.9019 279.078C90.4956 276.923 90.146 275.119 89.8814 273.701C89.7264 273.05 89.6346 272.386 89.6074 271.717V271.717Z" fill="#263238"/>
<path d="M233.495 226.369C233.721 226.426 232.427 231.406 231.539 237.709C230.65 244.011 230.461 249.105 230.235 249.048C230.036 247.935 229.985 246.801 230.083 245.674C230.159 242.954 230.392 240.241 230.783 237.548C231.165 234.85 231.707 232.177 232.408 229.544C232.633 228.444 232.998 227.377 233.495 226.369V226.369Z" fill="#263238"/>
<path d="M172.309 252.402L185.217 226.369L181.211 215.03C181.211 215.03 200.573 204.975 193.958 184.46C190.764 174.557 182.524 154.695 174.861 136.807C170.885 127.528 163.561 120.087 154.348 115.964C145.134 111.84 134.706 111.336 125.137 114.553L123.172 115.205C102.336 123.596 97.819 145.973 106.777 166.573L132.981 243.113L172.309 252.402Z" fill="#EFBE9D"/>
<path d="M181.211 214.954C181.211 214.954 168.652 220.35 152.031 216.343C152.031 216.343 163.276 228.93 183.034 220.236L181.211 214.954Z" fill="#E7996E"/>
<path d="M175.947 156.991C176.208 157.75 176.164 158.58 175.824 159.307C175.483 160.033 174.874 160.599 174.124 160.884C173.762 161.038 173.374 161.118 172.981 161.12C172.589 161.122 172.2 161.045 171.837 160.895C171.474 160.744 171.145 160.523 170.87 160.244C170.594 159.964 170.376 159.633 170.23 159.268C169.966 158.511 170.008 157.68 170.347 156.953C170.686 156.226 171.295 155.66 172.045 155.375C172.406 155.219 172.796 155.138 173.189 155.135C173.583 155.133 173.973 155.209 174.337 155.36C174.701 155.51 175.031 155.732 175.307 156.012C175.584 156.292 175.801 156.625 175.947 156.991V156.991Z" fill="#263238"/>
<path d="M173.746 147.05C173.519 147.551 170.75 146.653 167.613 147.721C164.476 148.789 162.709 151.123 162.236 150.858C162.009 150.745 162.151 149.913 162.907 148.864C163.951 147.467 165.399 146.425 167.055 145.878C168.686 145.328 170.449 145.308 172.092 145.821C173.311 146.237 173.868 146.814 173.746 147.05Z" fill="#263238"/>
<path d="M148.686 165.164C148.949 165.922 148.905 166.752 148.564 167.478C148.224 168.203 147.613 168.767 146.862 169.048C146.501 169.203 146.112 169.285 145.719 169.287C145.326 169.29 144.937 169.214 144.574 169.063C144.211 168.912 143.882 168.69 143.606 168.41C143.33 168.13 143.114 167.798 142.969 167.432C142.708 166.674 142.752 165.843 143.092 165.116C143.433 164.39 144.042 163.824 144.792 163.539C145.154 163.385 145.543 163.305 145.936 163.304C146.329 163.303 146.719 163.38 147.081 163.532C147.444 163.683 147.773 163.906 148.048 164.186C148.324 164.466 148.54 164.799 148.686 165.164V165.164Z" fill="#263238"/>
<path d="M143.252 156.348C143.073 156.868 140.228 156.282 137.223 157.68C134.218 159.079 132.716 161.602 132.225 161.385C131.988 161.29 132.026 160.44 132.669 159.334C133.549 157.834 134.868 156.64 136.448 155.913C138.013 155.19 139.765 154.978 141.457 155.309C142.723 155.592 143.347 156.102 143.252 156.348Z" fill="#263238"/>
<path d="M162.359 178.639C162.293 178.46 164.126 177.468 167.15 176.003C167.925 175.644 168.633 175.238 168.586 174.642C168.373 173.789 167.905 173.021 167.244 172.441L162.86 167.177C156.651 159.618 151.861 153.249 152.172 153.003C152.484 152.757 157.767 158.673 163.975 166.289C165.496 168.179 166.942 169.955 168.312 171.666C168.926 172.478 169.796 173.338 169.786 174.671C169.763 174.994 169.666 175.309 169.502 175.589C169.338 175.869 169.112 176.108 168.841 176.287C168.435 176.556 167.997 176.775 167.537 176.939C164.4 178.129 162.435 178.81 162.359 178.639Z" fill="#263238"/>
<path d="M138.99 145.443C138.99 146.388 135.693 147.05 132.158 148.732C128.624 150.414 125.978 152.417 125.241 151.812C124.892 151.519 125.147 150.546 126.063 149.318C127.327 147.765 128.927 146.521 130.742 145.679C132.558 144.838 134.542 144.421 136.543 144.461C138.074 144.498 138.981 144.952 138.99 145.443Z" fill="#263238"/>
<path d="M170.004 138.602C169.692 139.547 167.282 139.49 164.674 140.331C162.066 141.172 160.025 142.42 159.269 141.843C158.929 141.56 159.033 140.728 159.77 139.727C160.791 138.485 162.158 137.575 163.697 137.111C165.236 136.647 166.879 136.649 168.416 137.119C169.588 137.534 170.136 138.167 170.004 138.602Z" fill="#263238"/>
<path d="M113.505 181.105C113.108 181.105 98.0741 181.672 103.215 195.488C108.355 209.303 121.169 201.29 121.046 200.883C120.923 200.477 113.505 181.105 113.505 181.105Z" fill="#EFBE9D"/>
<path d="M114.875 197.226C114.8 197.226 114.696 197.481 114.365 197.822C113.885 198.281 113.243 198.532 112.579 198.521C110.916 198.521 108.799 196.631 107.854 194.212C107.374 193.039 107.164 191.773 107.24 190.508C107.212 190.028 107.3 189.548 107.495 189.109C107.691 188.67 107.989 188.285 108.365 187.985C108.614 187.811 108.917 187.729 109.22 187.753C109.523 187.777 109.809 187.906 110.028 188.117C110.358 188.438 110.377 188.75 110.462 188.741C110.547 188.731 110.67 188.4 110.349 187.871C110.144 187.557 109.837 187.323 109.48 187.21C109.238 187.134 108.985 187.108 108.733 187.132C108.481 187.157 108.237 187.231 108.015 187.352C107.489 187.675 107.054 188.128 106.753 188.667C106.452 189.207 106.294 189.814 106.295 190.432C106.158 191.847 106.366 193.273 106.9 194.59C108.024 197.34 110.415 199.419 112.626 199.249C113.038 199.221 113.438 199.1 113.797 198.896C114.155 198.691 114.462 198.408 114.696 198.067C114.979 197.566 114.932 197.226 114.875 197.226Z" fill="#E7996E"/>
<path d="M153.854 183.913C154.355 183.714 155.508 187.116 159.241 188.552C162.973 189.989 166.469 188.401 166.658 188.864C166.772 189.063 166.073 189.809 164.551 190.357C162.563 191.057 160.391 191.033 158.419 190.291C156.528 189.574 154.99 188.151 154.128 186.322C153.514 184.943 153.618 183.969 153.854 183.913Z" fill="#263238"/>
<path d="M179.869 106.54C179.239 105.277 178.304 104.191 177.149 103.379C175.995 102.567 174.656 102.056 173.254 101.891C172.984 101.116 172.639 100.369 172.224 99.6606C169.692 95.3705 163.984 93.046 159.354 94.9358C158.368 93.2751 156.947 91.9149 155.245 91.002C153.543 90.089 151.624 89.6579 149.695 89.7552C147.766 89.8524 145.9 90.4742 144.299 91.5537C142.697 92.6332 141.42 94.1293 140.606 95.8808C138.347 94.9723 135.873 94.7343 133.482 95.1951C131.09 95.656 128.882 96.7962 127.122 98.4794C126.67 98.8835 126.342 99.4079 126.177 99.9913C126.138 100.187 126.138 100.389 126.176 100.586C126.215 100.782 126.293 100.968 126.404 101.135C125.41 100.318 124.234 99.7537 122.975 99.4904C121.716 99.2271 120.412 99.2725 119.175 99.6228C118.336 99.8758 117.549 100.276 116.85 100.804C114.702 101.74 113.006 103.48 112.125 105.652C108.996 105.695 105.991 106.884 103.68 108.995C101.368 111.106 99.9119 113.991 99.586 117.104C97.3526 118.036 95.4476 119.613 94.1145 121.633C92.7814 123.652 92.0808 126.024 92.102 128.444C90.6693 129.059 89.424 130.041 88.4912 131.291C87.5584 132.541 86.971 134.014 86.7881 135.563C86.6052 137.111 86.8331 138.681 87.4491 140.113C88.0651 141.546 89.0474 142.791 90.2972 143.724C90.2972 143.724 81.2635 149.233 86.7347 157.113C89.5696 161.139 95.2393 158.351 95.2393 158.351L112.248 184.045C112.173 184.224 115.168 186.879 116.614 185.613C118.06 184.347 118.438 182.277 118.882 180.406C119.402 178.261 120.139 176.107 119.959 173.905C119.78 171.703 118.381 169.398 116.179 169.058C118.324 167.451 119.014 164.465 118.665 161.81C118.315 159.155 116.973 156.745 115.688 154.392L110.018 143.998C112.526 143.049 114.728 141.433 116.385 139.325C118.042 137.217 119.091 134.696 119.42 132.035C123.975 133.603 129.541 130.088 130.061 125.288C131.794 127.461 134.288 128.895 137.039 129.301C139.789 129.706 142.591 129.052 144.877 127.47C145.293 130.551 151.388 131.496 154.488 131.297C157.587 131.099 160.479 127.905 160.479 127.905C162.563 128.336 164.709 128.381 166.81 128.037V128.037L167.121 127.952C171.194 127.007 173.85 122.141 174.596 118.03C175.646 117.79 176.634 117.333 177.497 116.689C178.962 115.5 179.99 113.857 180.42 112.02C180.849 110.183 180.655 108.255 179.869 106.54V106.54Z" fill="#263238"/>
<path d="M157.681 99.0181C157.886 99.1444 158.074 99.2969 158.239 99.4717C158.732 99.954 159.15 100.508 159.477 101.116C160.007 102.075 160.347 103.127 160.479 104.215C160.656 105.666 160.468 107.137 159.93 108.496C159.237 110.138 157.98 111.478 156.387 112.276C154.549 113.196 152.45 113.456 150.443 113.013C149.358 112.776 148.337 112.308 147.448 111.643C146.973 111.307 146.561 110.891 146.229 110.414C145.866 109.917 145.65 109.327 145.605 108.713C145.595 108.39 145.653 108.069 145.777 107.771C145.901 107.473 146.087 107.204 146.323 106.984C146.8 106.563 147.387 106.285 148.015 106.181C148.641 106.058 149.287 106.078 149.905 106.237C150.522 106.371 151.111 106.614 151.643 106.956C152.678 107.618 153.515 108.546 154.067 109.644C154.619 110.741 154.866 111.967 154.78 113.192C154.662 114.317 154.32 115.408 153.775 116.399C153.23 117.39 152.492 118.263 151.605 118.966C150.014 120.245 148.095 121.051 146.068 121.291C144.325 121.501 142.56 121.424 140.842 121.064C138.383 120.507 136.002 119.647 133.755 118.503C132.952 118.115 132.347 117.794 131.932 117.558C131.717 117.454 131.509 117.337 131.308 117.208C131.537 117.273 131.759 117.361 131.969 117.473L133.859 118.314C136.117 119.377 138.488 120.179 140.928 120.705C142.609 121.032 144.332 121.086 146.03 120.865C147.976 120.624 149.814 119.838 151.331 118.597C152.165 117.929 152.859 117.102 153.373 116.165C153.887 115.228 154.211 114.198 154.327 113.136C154.4 111.998 154.167 110.861 153.652 109.844C153.137 108.827 152.358 107.967 151.398 107.353C150.917 107.039 150.381 106.818 149.819 106.701C149.273 106.559 148.702 106.54 148.147 106.644C147.613 106.729 147.115 106.965 146.711 107.324C146.521 107.495 146.371 107.706 146.272 107.941C146.172 108.176 146.125 108.43 146.134 108.685C146.209 109.205 146.394 109.702 146.678 110.144C146.962 110.586 147.337 110.961 147.778 111.246C148.618 111.88 149.585 112.325 150.613 112.55C152.523 112.989 154.526 112.755 156.283 111.888C157.809 111.135 159.015 109.862 159.685 108.297C160.153 107.152 160.369 105.919 160.317 104.683C160.264 103.447 159.946 102.236 159.382 101.135C158.929 100.345 158.355 99.631 157.681 99.0181V99.0181Z" fill="#455A64"/>
<path d="M66.1726 320.741C66.1726 320.741 57.2145 353.172 55.2396 361.09C53.2646 369.009 53.2457 387.407 57.7342 392.85C62.2227 398.293 77.0395 401.761 77.0395 401.761C77.0395 401.761 106.116 387.587 116.019 370.237C125.922 352.888 152.985 305.792 152.985 305.792L144.414 282.263L99.3309 325.305L99.8034 319.702L66.1726 320.741Z" fill="#EFBE9D"/>
<path d="M160.327 208.055C160.699 207.865 161.104 207.751 161.52 207.718C161.935 207.686 162.354 207.736 162.75 207.866C163.146 207.996 163.513 208.203 163.828 208.476C164.144 208.748 164.403 209.081 164.589 209.454L190.537 261.124L183.923 264.081L158.91 212.251C158.551 211.505 158.498 210.648 158.763 209.864C159.028 209.08 159.589 208.43 160.327 208.055V208.055Z" fill="#455A64"/>
<path d="M143.016 283.746L167.273 258.733H190.518L205.382 278.388C205.382 278.388 198.324 279.702 195.801 275.913L192.512 271.235C192.512 271.235 195.801 278.436 194.034 281.979C194.034 281.979 190.547 290.191 189.989 291.07C188.931 292.723 188.099 293.782 185.094 293.281C182.089 292.78 177.355 290.314 177.856 288.556C178.014 288.043 178.31 287.582 178.711 287.226C179.113 286.869 179.605 286.63 180.133 286.534L173.056 285.523C173.056 285.523 165.931 298.431 161.641 301.464C158.986 303.319 156.077 304.78 153.004 305.801L143.016 283.746Z" fill="#EFBE9D"/>
<path d="M100.238 324.549C100.295 324.672 98.282 325.607 95.192 327.384C91.183 329.735 87.4136 332.472 83.9377 335.557C80.4631 338.664 77.2984 342.101 74.4882 345.82C72.3432 348.654 71.1903 350.544 71.0769 350.544C71.2488 350.052 71.4805 349.582 71.7667 349.146C72.4645 347.906 73.2279 346.704 74.0535 345.546C79.4439 337.815 86.5618 331.448 94.8424 326.949C96.4299 326.108 97.7528 325.475 98.6789 325.059C99.1743 324.822 99.6984 324.651 100.238 324.549V324.549Z" fill="#E7996E"/>
<path d="M172.555 266C173.667 265.681 174.811 265.487 175.966 265.424C178.073 265.159 181.003 264.857 184.234 264.573C185.05 264.474 185.875 264.474 186.691 264.573C187.473 264.696 188.217 264.997 188.865 265.452C189.924 266.217 190.773 267.238 191.331 268.419C191.888 269.448 192.256 270.568 192.418 271.727C192.295 271.774 191.851 270.508 190.849 268.675C190.274 267.623 189.462 266.72 188.477 266.038C187.908 265.662 187.263 265.417 186.587 265.32C185.831 265.235 185.067 265.235 184.31 265.32C181.078 265.603 178.149 265.821 176.023 265.944C174.873 266.092 173.709 266.111 172.555 266V266Z" fill="#E7996E"/>
<path d="M191.076 289.813C190.944 289.813 191.17 288.046 191.019 285.23C190.927 283.586 190.702 281.952 190.348 280.344C189.951 278.577 189.403 276.461 187.608 275.431C186.717 274.958 185.762 274.617 184.773 274.42L181.938 273.768C180.324 273.398 178.685 273.146 177.034 273.012C175.515 272.964 173.994 273.002 172.479 273.125C172.849 272.925 173.253 272.796 173.67 272.747C174.787 272.529 175.925 272.437 177.062 272.473C178.742 272.532 180.414 272.731 182.061 273.068C183.006 273.248 183.951 273.456 184.953 273.683C186.03 273.88 187.07 274.247 188.033 274.769C189.004 275.362 189.765 276.244 190.207 277.292C190.602 278.224 190.89 279.197 191.066 280.193C191.395 281.843 191.569 283.519 191.586 285.201C191.599 286.333 191.53 287.463 191.378 288.584C191.349 289.008 191.246 289.424 191.076 289.813V289.813Z" fill="#E7996E"/>
<path d="M182.704 281.412C182.902 281.412 183.053 283.434 183.072 286.071V286.524L182.6 286.439C182.344 286.389 182.085 286.364 181.825 286.364C180.612 286.406 179.461 286.913 178.612 287.781C177.96 288.461 177.752 289.057 177.667 289.019C177.582 288.981 177.61 288.31 178.234 287.431C178.661 286.871 179.209 286.415 179.837 286.097C180.466 285.78 181.159 285.609 181.863 285.598C182.18 285.599 182.497 285.634 182.808 285.702L182.345 286.071C182.307 283.406 182.467 281.412 182.704 281.412Z" fill="#E7996E"/>
<path d="M182.704 282.187C182.704 282.404 180.568 282.093 177.979 281.96C175.39 281.828 173.254 281.904 173.254 281.686C173.254 281.469 175.343 281.053 177.979 281.195C180.615 281.337 182.704 281.989 182.704 282.187Z" fill="#E7996E"/>
<path d="M173.642 280.978C173.84 280.978 173.642 283.274 172.593 285.844C171.544 288.414 170.013 290.125 169.852 290.002C169.692 289.879 170.854 288.017 171.884 285.542C172.914 283.066 173.415 280.94 173.642 280.978Z" fill="#E7996E"/>
<path d="M325.911 283.727C325.911 283.727 341.899 262.938 343.647 261.993C345.396 261.048 367.658 257.835 367.658 257.835C367.658 257.835 366.714 264.866 360.278 266.935C355.724 268.4 350.385 269.543 350.385 269.543C350.385 269.543 352.161 283.17 348.882 288.631C346.177 292.805 343.11 296.732 339.716 300.368L325.911 283.727Z" fill="#EFBE9D"/>
<path d="M345.877 291.797C347.305 290.112 348.434 288.194 349.213 286.128C349.978 283.848 350.417 281.471 350.517 279.069C350.593 277.649 350.593 276.227 350.517 274.807C350.458 274.064 350.35 273.325 350.196 272.596C350.004 271.8 349.978 270.973 350.12 270.167C350.208 269.955 350.336 269.763 350.498 269.6C350.66 269.438 350.853 269.31 351.065 269.222C351.426 269.046 351.803 268.904 352.19 268.797C352.927 268.591 353.674 268.424 354.429 268.296C355.829 268.076 357.212 267.76 358.568 267.351C360.882 266.719 362.988 265.487 364.672 263.78C365.756 262.582 366.58 261.173 367.092 259.641C367.469 258.554 367.592 257.921 367.64 257.93C367.646 258.087 367.627 258.243 367.583 258.393C367.509 258.835 367.405 259.27 367.271 259.697C366.819 261.293 366.019 262.768 364.928 264.016C363.231 265.814 361.079 267.12 358.7 267.796C357.331 268.234 355.932 268.575 354.514 268.816C353.779 268.946 353.05 269.113 352.331 269.317C351.969 269.414 351.618 269.547 351.283 269.714C350.973 269.83 350.719 270.06 350.574 270.356C350.465 271.086 350.497 271.831 350.668 272.549C350.828 273.299 350.935 274.06 350.99 274.826C351.07 276.261 351.07 277.7 350.99 279.135C350.869 281.577 350.385 283.988 349.553 286.288C348.967 287.808 348.148 289.226 347.125 290.493C346.849 290.844 346.549 291.176 346.227 291.485C346.123 291.603 346.006 291.707 345.877 291.797V291.797Z" fill="#E7996E"/>
<path d="M223.866 420.481H331.949C333.185 420.48 334.381 420.046 335.33 419.253C336.278 418.46 336.917 417.36 337.137 416.143L350.527 342.258C350.665 341.498 350.635 340.717 350.438 339.97C350.241 339.223 349.883 338.528 349.388 337.935C348.893 337.342 348.274 336.865 347.574 336.537C346.874 336.21 346.111 336.04 345.339 336.04H237.256C236.019 336.04 234.821 336.474 233.871 337.267C232.921 338.059 232.28 339.16 232.058 340.377L218.678 414.263C218.539 415.023 218.57 415.804 218.766 416.551C218.963 417.298 219.322 417.993 219.817 418.586C220.312 419.179 220.931 419.656 221.63 419.984C222.33 420.311 223.093 420.481 223.866 420.481Z" fill="#263238"/>
<path d="M238.39 336.04C238.286 336.04 234.449 354.939 229.819 378.213C225.189 401.487 221.513 420.424 221.607 420.424C221.702 420.424 225.548 401.572 230.187 378.251C234.827 354.93 238.456 336.059 238.39 336.04Z" fill="#455A64"/>
<path d="M288.188 379.46C288.386 378.729 288.799 378.074 289.374 377.581C289.948 377.087 290.658 376.777 291.411 376.692H291.099C291.884 376.543 292.697 376.652 293.416 377.003C294.134 377.355 294.72 377.929 295.085 378.641C295.45 379.352 295.575 380.163 295.441 380.951C295.307 381.74 294.921 382.464 294.342 383.015C293.762 383.566 293.02 383.915 292.226 384.009C291.432 384.104 290.628 383.939 289.936 383.539C289.243 383.139 288.699 382.525 288.384 381.79C288.069 381.055 288 380.238 288.188 379.46V379.46Z" fill="#455A64"/>
</svg>
