<svg width="72" height="105" viewBox="0 0 72 105" fill="none" xmlns="http://www.w3.org/2000/svg">
<path fill-rule="evenodd" clip-rule="evenodd" d="M4.58576 19.0166C4.58576 10.9734 11.1347 4.43427 19.2151 4.43427H33.8444V33.5981H19.2152L19.1586 33.5982L19.0943 33.5985C11.0696 33.5337 4.58576 27.0198 4.58576 19.0166ZM19.2151 0.198242H33.8443H35.9624H38.0804H52.7097C63.1184 0.198242 71.575 8.62267 71.575 19.0166C71.575 26.2784 67.4472 32.5788 61.4098 35.7165C67.4472 38.8543 71.5751 45.1547 71.5751 52.4165C71.5751 62.8104 63.1184 71.2348 52.7097 71.2348C46.8123 71.2348 41.5416 68.5304 38.0805 64.2957V66.9987V69.1167V69.1168V71.2348V85.817C38.0805 96.211 29.6238 104.635 19.2152 104.635C8.80653 104.635 0.34986 96.211 0.34986 85.817C0.34986 78.555 4.478 72.2544 10.5158 69.1167C4.478 65.9791 0.34986 59.6785 0.34986 52.4165C0.34986 45.1547 4.47765 38.8544 10.515 35.7166C4.47758 32.5788 0.349731 26.2784 0.349731 19.0166C0.349731 8.62267 8.80641 0.198242 19.2151 0.198242ZM33.8445 52.3536C33.8444 52.3746 33.8444 52.3955 33.8444 52.4165C33.8444 52.4374 33.8444 52.4584 33.8445 52.4793V66.9987H19.2152L19.1671 66.9987C11.1088 66.9728 4.58588 60.4437 4.58588 52.4165C4.58588 44.4134 11.0696 37.8994 19.0944 37.8346C19.1346 37.8349 19.1748 37.835 19.2151 37.835H33.8443H33.8445V52.3536ZM38.0805 52.4727V52.3602C38.1108 44.3962 44.5613 37.921 52.5487 37.835H52.7097C52.75 37.835 52.7902 37.8349 52.8305 37.8346C60.8553 37.8994 67.3391 44.4133 67.3391 52.4165C67.3391 60.4597 60.7901 66.9988 52.7097 66.9988C44.6482 66.9988 38.111 60.4902 38.0805 52.4727ZM40.7873 37.835C39.7963 38.6423 38.889 39.548 38.0805 40.5373V37.835H40.7873ZM52.8305 33.5985C52.7903 33.5982 52.75 33.5981 52.7097 33.5981C52.6488 33.5981 52.5879 33.5984 52.527 33.599H38.0805V33.5981H38.0804L38.0804 4.43427H52.7097C60.7901 4.43427 67.339 10.9734 67.339 19.0166C67.339 27.0198 60.8552 33.5337 52.8305 33.5985ZM4.58588 85.817C4.58588 77.7897 11.1088 71.2607 19.1671 71.2348L19.2152 71.2348H33.8445V85.817C33.8445 93.8603 27.2956 100.399 19.2152 100.399C11.1348 100.399 4.58588 93.8603 4.58588 85.817Z" fill="#5B5B5B"/>
</svg>
