<svg width="103" height="103" viewBox="0 0 103 103" fill="none" xmlns="http://www.w3.org/2000/svg">
<path d="M51.5 9.44167C65.2333 9.44167 66.95 9.44167 72.5292 9.87083C86.6917 10.3 93.1292 17.1667 93.5583 30.9C93.9875 36.4792 93.9875 37.7667 93.9875 51.5C93.9875 65.2333 93.9875 66.95 93.5583 72.1C93.1292 85.8333 86.2625 92.7 72.5292 93.1292C66.95 93.5583 65.6625 93.5583 51.5 93.5583C37.7667 93.5583 36.05 93.5583 30.9 93.1292C16.7375 92.7 10.3 85.8333 9.87083 72.1C9.44167 66.5208 9.44167 65.2333 9.44167 51.5C9.44167 37.7667 9.44167 36.05 9.87083 30.9C10.3 17.1667 17.1667 10.3 30.9 9.87083C36.05 9.44167 37.7667 9.44167 51.5 9.44167ZM51.5 0C37.3375 0 35.6208 0 30.4708 0.429167C11.5875 1.2875 1.2875 11.5875 0.429167 30.4708C0 35.6208 0 37.3375 0 51.5C0 65.6625 0 67.3792 0.429167 72.5292C1.2875 91.4125 11.5875 101.712 30.4708 102.571C35.6208 103 37.3375 103 51.5 103C65.6625 103 67.3792 103 72.5292 102.571C91.4125 101.712 101.712 91.4125 102.571 72.5292C103 67.3792 103 65.6625 103 51.5C103 37.3375 103 35.6208 102.571 30.4708C101.712 11.5875 91.4125 1.2875 72.5292 0.429167C67.3792 0 65.6625 0 51.5 0ZM51.5 24.8917C36.9083 24.8917 24.8917 36.9083 24.8917 51.5C24.8917 66.0917 36.9083 78.1083 51.5 78.1083C66.0917 78.1083 78.1083 66.0917 78.1083 51.5C78.1083 36.9083 66.0917 24.8917 51.5 24.8917ZM51.5 68.6667C42.0583 68.6667 34.3333 60.9417 34.3333 51.5C34.3333 42.0583 42.0583 34.3333 51.5 34.3333C60.9417 34.3333 68.6667 42.0583 68.6667 51.5C68.6667 60.9417 60.9417 68.6667 51.5 68.6667ZM78.9667 18.025C75.5333 18.025 72.9583 20.6 72.9583 24.0333C72.9583 27.4667 75.5333 30.0417 78.9667 30.0417C82.4 30.0417 84.975 27.4667 84.975 24.0333C84.975 20.6 82.4 18.025 78.9667 18.025Z" fill="#5B5B5B"/>
</svg>
