<svg width="103" height="84" viewBox="0 0 103 84" fill="none" xmlns="http://www.w3.org/2000/svg">
<path d="M32.3926 84C71.2623 84 92.5188 51.6858 92.5188 23.6658C92.5188 22.7477 92.5 21.8343 92.4579 20.9245C96.5838 17.9316 100.171 14.1957 103 9.945C99.2138 11.6331 95.1394 12.7698 90.8646 13.2823C95.2272 10.6574 98.5777 6.50304 100.158 1.5517C96.0742 3.98153 91.5523 5.74718 86.7399 6.69936C82.8822 2.57794 77.3903 0 71.3138 0C59.6424 0 50.178 9.49712 50.178 21.2031C50.178 22.8676 50.3642 24.4852 50.7251 26.038C33.1634 25.1529 17.5898 16.7137 7.16828 3.88396C5.35132 7.01675 4.30519 10.6585 4.30519 14.5413C4.30519 21.8978 8.03635 28.3926 13.7098 32.1931C10.2434 32.0861 6.9867 31.1293 4.13884 29.5399C4.13415 29.6281 4.13415 29.7175 4.13415 29.8103C4.13415 40.0809 11.4196 48.6553 21.0878 50.5984C19.313 51.0839 17.4457 51.3449 15.5174 51.3449C14.1562 51.3449 12.8324 51.2085 11.5449 50.9628C14.2346 59.3867 22.0367 65.5183 31.2867 65.6911C24.0528 71.3795 14.9411 74.7685 5.04088 74.7685C3.33637 74.7685 1.65413 74.671 0 74.4747C9.35192 80.4887 20.4564 84 32.3926 84Z" fill="#5B5B5B"/>
</svg>
